<svg width="156" height="67" viewBox="0 0 156 67" fill="none" xmlns="http://www.w3.org/2000/svg">
<rect x="12.5" y="20.5" width="143" height="46" rx="9.5" stroke="white"/>
<path opacity="0.75" d="M23.636 11.86C23.968 11.86 24.26 11.816 24.512 11.728C24.768 11.64 24.982 11.518 25.154 11.362C25.33 11.202 25.462 11.012 25.55 10.792C25.638 10.572 25.682 10.33 25.682 10.066C25.682 9.518 25.512 9.09 25.172 8.782C24.836 8.474 24.324 8.32 23.636 8.32H22.256V11.86H23.636ZM23.636 7.402C24.18 7.402 24.652 7.466 25.052 7.594C25.456 7.718 25.79 7.896 26.054 8.128C26.318 8.36 26.514 8.64 26.642 8.968C26.774 9.296 26.84 9.662 26.84 10.066C26.84 10.466 26.77 10.832 26.63 11.164C26.49 11.496 26.284 11.782 26.012 12.022C25.744 12.262 25.41 12.45 25.01 12.586C24.614 12.718 24.156 12.784 23.636 12.784H22.256V16H21.098V7.402H23.636ZM31.8046 12.298C31.8046 12.05 31.7686 11.824 31.6966 11.62C31.6286 11.412 31.5266 11.234 31.3906 11.086C31.2586 10.934 31.0966 10.818 30.9046 10.738C30.7126 10.654 30.4946 10.612 30.2506 10.612C29.7386 10.612 29.3326 10.762 29.0326 11.062C28.7366 11.358 28.5526 11.77 28.4806 12.298H31.8046ZM32.6686 15.148C32.5366 15.308 32.3786 15.448 32.1946 15.568C32.0106 15.684 31.8126 15.78 31.6006 15.856C31.3926 15.932 31.1766 15.988 30.9526 16.024C30.7286 16.064 30.5066 16.084 30.2866 16.084C29.8666 16.084 29.4786 16.014 29.1226 15.874C28.7706 15.73 28.4646 15.522 28.2046 15.25C27.9486 14.974 27.7486 14.634 27.6046 14.23C27.4606 13.826 27.3886 13.362 27.3886 12.838C27.3886 12.414 27.4526 12.018 27.5806 11.65C27.7126 11.282 27.9006 10.964 28.1446 10.696C28.3886 10.424 28.6866 10.212 29.0386 10.06C29.3906 9.904 29.7866 9.826 30.2266 9.826C30.5906 9.826 30.9266 9.888 31.2346 10.012C31.5466 10.132 31.8146 10.308 32.0386 10.54C32.2666 10.768 32.4446 11.052 32.5726 11.392C32.7006 11.728 32.7646 12.112 32.7646 12.544C32.7646 12.712 32.7466 12.824 32.7106 12.88C32.6746 12.936 32.6066 12.964 32.5066 12.964H28.4446C28.4566 13.348 28.5086 13.682 28.6006 13.966C28.6966 14.25 28.8286 14.488 28.9966 14.68C29.1646 14.868 29.3646 15.01 29.5966 15.106C29.8286 15.198 30.0886 15.244 30.3766 15.244C30.6446 15.244 30.8746 15.214 31.0666 15.154C31.2626 15.09 31.4306 15.022 31.5706 14.95C31.7106 14.878 31.8266 14.812 31.9186 14.752C32.0146 14.688 32.0966 14.656 32.1646 14.656C32.2526 14.656 32.3206 14.69 32.3686 14.758L32.6686 15.148ZM36.1945 13.03C36.4105 13.03 36.6005 13 36.7645 12.94C36.9285 12.88 37.0665 12.796 37.1785 12.688C37.2905 12.58 37.3745 12.452 37.4305 12.304C37.4865 12.152 37.5145 11.986 37.5145 11.806C37.5145 11.434 37.4005 11.138 37.1725 10.918C36.9485 10.698 36.6225 10.588 36.1945 10.588C35.7625 10.588 35.4325 10.698 35.2045 10.918C34.9805 11.138 34.8685 11.434 34.8685 11.806C34.8685 11.986 34.8965 12.152 34.9525 12.304C35.0125 12.452 35.0985 12.58 35.2105 12.688C35.3225 12.796 35.4605 12.88 35.6245 12.94C35.7885 13 35.9785 13.03 36.1945 13.03ZM38.1205 16.33C38.1205 16.182 38.0785 16.062 37.9945 15.97C37.9105 15.878 37.7965 15.806 37.6525 15.754C37.5125 15.702 37.3485 15.666 37.1605 15.646C36.9725 15.622 36.7725 15.604 36.5605 15.592C36.3525 15.58 36.1405 15.568 35.9245 15.556C35.7085 15.544 35.5005 15.524 35.3005 15.496C35.0765 15.6 34.8925 15.732 34.7485 15.892C34.6085 16.048 34.5385 16.232 34.5385 16.444C34.5385 16.58 34.5725 16.706 34.6405 16.822C34.7125 16.942 34.8205 17.044 34.9645 17.128C35.1085 17.216 35.2885 17.284 35.5045 17.332C35.7245 17.384 35.9825 17.41 36.2785 17.41C36.5665 17.41 36.8245 17.384 37.0525 17.332C37.2805 17.28 37.4725 17.206 37.6285 17.11C37.7885 17.014 37.9105 16.9 37.9945 16.768C38.0785 16.636 38.1205 16.49 38.1205 16.33ZM39.2065 10.162V10.558C39.2065 10.69 39.1225 10.774 38.9545 10.81L38.2645 10.9C38.4005 11.164 38.4685 11.456 38.4685 11.776C38.4685 12.072 38.4105 12.342 38.2945 12.586C38.1825 12.826 38.0265 13.032 37.8265 13.204C37.6265 13.376 37.3865 13.508 37.1065 13.6C36.8265 13.692 36.5225 13.738 36.1945 13.738C35.9105 13.738 35.6425 13.704 35.3905 13.636C35.2625 13.716 35.1645 13.802 35.0965 13.894C35.0285 13.982 34.9945 14.072 34.9945 14.164C34.9945 14.308 35.0525 14.418 35.1685 14.494C35.2885 14.566 35.4445 14.618 35.6365 14.65C35.8285 14.682 36.0465 14.702 36.2905 14.71C36.5385 14.718 36.7905 14.732 37.0465 14.752C37.3065 14.768 37.5585 14.798 37.8025 14.842C38.0505 14.886 38.2705 14.958 38.4625 15.058C38.6545 15.158 38.8085 15.296 38.9245 15.472C39.0445 15.648 39.1045 15.876 39.1045 16.156C39.1045 16.416 39.0385 16.668 38.9065 16.912C38.7785 17.156 38.5925 17.372 38.3485 17.56C38.1045 17.752 37.8045 17.904 37.4485 18.016C37.0965 18.132 36.6985 18.19 36.2545 18.19C35.8105 18.19 35.4225 18.146 35.0905 18.058C34.7585 17.97 34.4825 17.852 34.2625 17.704C34.0425 17.556 33.8765 17.384 33.7645 17.188C33.6565 16.996 33.6025 16.794 33.6025 16.582C33.6025 16.282 33.6965 16.028 33.8845 15.82C34.0725 15.612 34.3305 15.446 34.6585 15.322C34.4785 15.242 34.3345 15.136 34.2265 15.004C34.1225 14.868 34.0705 14.686 34.0705 14.458C34.0705 14.37 34.0865 14.28 34.1185 14.188C34.1505 14.092 34.1985 13.998 34.2625 13.906C34.3305 13.81 34.4125 13.72 34.5085 13.636C34.6045 13.552 34.7165 13.478 34.8445 13.414C34.5445 13.246 34.3105 13.024 34.1425 12.748C33.9745 12.468 33.8905 12.144 33.8905 11.776C33.8905 11.48 33.9465 11.212 34.0585 10.972C34.1745 10.728 34.3345 10.522 34.5385 10.354C34.7425 10.182 34.9845 10.05 35.2645 9.958C35.5485 9.866 35.8585 9.82 36.1945 9.82C36.4585 9.82 36.7045 9.85 36.9325 9.91C37.1605 9.966 37.3685 10.05 37.5565 10.162H39.2065ZM43.6048 13.264C43.1128 13.28 42.6928 13.32 42.3448 13.384C42.0008 13.444 41.7188 13.524 41.4988 13.624C41.2828 13.724 41.1248 13.842 41.0248 13.978C40.9288 14.114 40.8808 14.266 40.8808 14.434C40.8808 14.594 40.9068 14.732 40.9588 14.848C41.0108 14.964 41.0808 15.06 41.1688 15.136C41.2608 15.208 41.3668 15.262 41.4868 15.298C41.6108 15.33 41.7428 15.346 41.8828 15.346C42.0708 15.346 42.2428 15.328 42.3988 15.292C42.5548 15.252 42.7008 15.196 42.8368 15.124C42.9768 15.052 43.1088 14.966 43.2328 14.866C43.3608 14.766 43.4848 14.652 43.6048 14.524V13.264ZM40.1548 10.78C40.4908 10.456 40.8528 10.214 41.2408 10.054C41.6288 9.894 42.0588 9.814 42.5308 9.814C42.8708 9.814 43.1728 9.87 43.4368 9.982C43.7008 10.094 43.9228 10.25 44.1028 10.45C44.2828 10.65 44.4188 10.892 44.5108 11.176C44.6028 11.46 44.6488 11.772 44.6488 12.112V16H44.1748C44.0708 16 43.9908 15.984 43.9348 15.952C43.8788 15.916 43.8348 15.848 43.8028 15.748L43.6828 15.172C43.5228 15.32 43.3668 15.452 43.2148 15.568C43.0628 15.68 42.9028 15.776 42.7348 15.856C42.5668 15.932 42.3868 15.99 42.1948 16.03C42.0068 16.074 41.7968 16.096 41.5648 16.096C41.3288 16.096 41.1068 16.064 40.8988 16C40.6908 15.932 40.5088 15.832 40.3528 15.7C40.2008 15.568 40.0788 15.402 39.9868 15.202C39.8988 14.998 39.8548 14.758 39.8548 14.482C39.8548 14.242 39.9208 14.012 40.0528 13.792C40.1848 13.568 40.3988 13.37 40.6948 13.198C40.9908 13.026 41.3768 12.886 41.8528 12.778C42.3288 12.666 42.9128 12.602 43.6048 12.586V12.112C43.6048 11.64 43.5028 11.284 43.2988 11.044C43.0948 10.8 42.7968 10.678 42.4048 10.678C42.1408 10.678 41.9188 10.712 41.7388 10.78C41.5628 10.844 41.4088 10.918 41.2768 11.002C41.1488 11.082 41.0368 11.156 40.9408 11.224C40.8488 11.288 40.7568 11.32 40.6648 11.32C40.5928 11.32 40.5308 11.302 40.4788 11.266C40.4268 11.226 40.3828 11.178 40.3468 11.122L40.1548 10.78ZM50.2357 11.368C50.0357 11.1 49.8197 10.914 49.5877 10.81C49.3557 10.702 49.0957 10.648 48.8077 10.648C48.2437 10.648 47.8097 10.85 47.5057 11.254C47.2017 11.658 47.0497 12.234 47.0497 12.982C47.0497 13.378 47.0837 13.718 47.1517 14.002C47.2197 14.282 47.3197 14.514 47.4517 14.698C47.5837 14.878 47.7457 15.01 47.9377 15.094C48.1297 15.178 48.3477 15.22 48.5917 15.22C48.9437 15.22 49.2497 15.14 49.5097 14.98C49.7737 14.82 50.0157 14.594 50.2357 14.302V11.368ZM51.3037 7.162V16H50.6677C50.5157 16 50.4197 15.926 50.3797 15.778L50.2837 15.04C50.0237 15.352 49.7277 15.604 49.3957 15.796C49.0637 15.988 48.6797 16.084 48.2437 16.084C47.8957 16.084 47.5797 16.018 47.2957 15.886C47.0117 15.75 46.7697 15.552 46.5697 15.292C46.3697 15.032 46.2157 14.708 46.1077 14.32C45.9997 13.932 45.9457 13.486 45.9457 12.982C45.9457 12.534 46.0057 12.118 46.1257 11.734C46.2457 11.346 46.4177 11.01 46.6417 10.726C46.8657 10.442 47.1397 10.22 47.4637 10.06C47.7917 9.896 48.1597 9.814 48.5677 9.814C48.9397 9.814 49.2577 9.878 49.5217 10.006C49.7897 10.13 50.0277 10.304 50.2357 10.528V7.162H51.3037ZM56.2845 13.264C55.7925 13.28 55.3725 13.32 55.0245 13.384C54.6805 13.444 54.3985 13.524 54.1785 13.624C53.9625 13.724 53.8045 13.842 53.7045 13.978C53.6085 14.114 53.5605 14.266 53.5605 14.434C53.5605 14.594 53.5865 14.732 53.6385 14.848C53.6905 14.964 53.7605 15.06 53.8485 15.136C53.9405 15.208 54.0465 15.262 54.1665 15.298C54.2905 15.33 54.4225 15.346 54.5625 15.346C54.7505 15.346 54.9225 15.328 55.0785 15.292C55.2345 15.252 55.3805 15.196 55.5165 15.124C55.6565 15.052 55.7885 14.966 55.9125 14.866C56.0405 14.766 56.1645 14.652 56.2845 14.524V13.264ZM52.8345 10.78C53.1705 10.456 53.5325 10.214 53.9205 10.054C54.3085 9.894 54.7385 9.814 55.2105 9.814C55.5505 9.814 55.8525 9.87 56.1165 9.982C56.3805 10.094 56.6025 10.25 56.7825 10.45C56.9625 10.65 57.0985 10.892 57.1905 11.176C57.2825 11.46 57.3285 11.772 57.3285 12.112V16H56.8545C56.7505 16 56.6705 15.984 56.6145 15.952C56.5585 15.916 56.5145 15.848 56.4825 15.748L56.3625 15.172C56.2025 15.32 56.0465 15.452 55.8945 15.568C55.7425 15.68 55.5825 15.776 55.4145 15.856C55.2465 15.932 55.0665 15.99 54.8745 16.03C54.6865 16.074 54.4765 16.096 54.2445 16.096C54.0085 16.096 53.7865 16.064 53.5785 16C53.3705 15.932 53.1885 15.832 53.0325 15.7C52.8805 15.568 52.7585 15.402 52.6665 15.202C52.5785 14.998 52.5345 14.758 52.5345 14.482C52.5345 14.242 52.6005 14.012 52.7325 13.792C52.8645 13.568 53.0785 13.37 53.3745 13.198C53.6705 13.026 54.0565 12.886 54.5325 12.778C55.0085 12.666 55.5925 12.602 56.2845 12.586V12.112C56.2845 11.64 56.1825 11.284 55.9785 11.044C55.7745 10.8 55.4765 10.678 55.0845 10.678C54.8205 10.678 54.5985 10.712 54.4185 10.78C54.2425 10.844 54.0885 10.918 53.9565 11.002C53.8285 11.082 53.7165 11.156 53.6205 11.224C53.5285 11.288 53.4365 11.32 53.3445 11.32C53.2725 11.32 53.2105 11.302 53.1585 11.266C53.1065 11.226 53.0625 11.178 53.0265 11.122L52.8345 10.78ZM60.0834 9.922V16H59.0154V9.922H60.0834ZM60.3114 8.014C60.3114 8.118 60.2894 8.216 60.2454 8.308C60.2054 8.396 60.1494 8.476 60.0774 8.548C60.0094 8.616 59.9274 8.67 59.8314 8.71C59.7394 8.75 59.6414 8.77 59.5374 8.77C59.4334 8.77 59.3354 8.75 59.2434 8.71C59.1554 8.67 59.0774 8.616 59.0094 8.548C58.9414 8.476 58.8874 8.396 58.8474 8.308C58.8074 8.216 58.7874 8.118 58.7874 8.014C58.7874 7.91 58.8074 7.812 58.8474 7.72C58.8874 7.624 58.9414 7.542 59.0094 7.474C59.0774 7.402 59.1554 7.346 59.2434 7.306C59.3354 7.266 59.4334 7.246 59.5374 7.246C59.6414 7.246 59.7394 7.266 59.8314 7.306C59.9274 7.346 60.0094 7.402 60.0774 7.474C60.1494 7.542 60.2054 7.624 60.2454 7.72C60.2894 7.812 60.3114 7.91 60.3114 8.014ZM65.1322 13.264C64.6402 13.28 64.2202 13.32 63.8722 13.384C63.5282 13.444 63.2462 13.524 63.0262 13.624C62.8102 13.724 62.6522 13.842 62.5522 13.978C62.4562 14.114 62.4082 14.266 62.4082 14.434C62.4082 14.594 62.4342 14.732 62.4862 14.848C62.5382 14.964 62.6082 15.06 62.6962 15.136C62.7882 15.208 62.8942 15.262 63.0142 15.298C63.1382 15.33 63.2702 15.346 63.4102 15.346C63.5982 15.346 63.7702 15.328 63.9262 15.292C64.0822 15.252 64.2282 15.196 64.3642 15.124C64.5042 15.052 64.6362 14.966 64.7602 14.866C64.8882 14.766 65.0122 14.652 65.1322 14.524V13.264ZM61.6822 10.78C62.0182 10.456 62.3802 10.214 62.7682 10.054C63.1562 9.894 63.5862 9.814 64.0582 9.814C64.3982 9.814 64.7002 9.87 64.9642 9.982C65.2282 10.094 65.4502 10.25 65.6302 10.45C65.8102 10.65 65.9462 10.892 66.0382 11.176C66.1302 11.46 66.1762 11.772 66.1762 12.112V16H65.7022C65.5982 16 65.5182 15.984 65.4622 15.952C65.4062 15.916 65.3622 15.848 65.3302 15.748L65.2102 15.172C65.0502 15.32 64.8942 15.452 64.7422 15.568C64.5902 15.68 64.4302 15.776 64.2622 15.856C64.0942 15.932 63.9142 15.99 63.7222 16.03C63.5342 16.074 63.3242 16.096 63.0922 16.096C62.8562 16.096 62.6342 16.064 62.4262 16C62.2182 15.932 62.0362 15.832 61.8802 15.7C61.7282 15.568 61.6062 15.402 61.5142 15.202C61.4262 14.998 61.3822 14.758 61.3822 14.482C61.3822 14.242 61.4482 14.012 61.5802 13.792C61.7122 13.568 61.9262 13.37 62.2222 13.198C62.5182 13.026 62.9042 12.886 63.3802 12.778C63.8562 12.666 64.4402 12.602 65.1322 12.586V12.112C65.1322 11.64 65.0302 11.284 64.8262 11.044C64.6222 10.8 64.3242 10.678 63.9322 10.678C63.6682 10.678 63.4462 10.712 63.2662 10.78C63.0902 10.844 62.9362 10.918 62.8042 11.002C62.6762 11.082 62.5642 11.156 62.4682 11.224C62.3762 11.288 62.2842 11.32 62.1922 11.32C62.1202 11.32 62.0582 11.302 62.0062 11.266C61.9542 11.226 61.9102 11.178 61.8742 11.122L61.6822 10.78ZM68.811 10.804C68.943 10.656 69.083 10.522 69.231 10.402C69.379 10.282 69.535 10.18 69.699 10.096C69.867 10.008 70.043 9.942 70.227 9.898C70.415 9.85 70.617 9.826 70.833 9.826C71.165 9.826 71.457 9.882 71.709 9.994C71.965 10.102 72.177 10.258 72.345 10.462C72.517 10.662 72.647 10.904 72.735 11.188C72.823 11.472 72.867 11.786 72.867 12.13V16H71.793V12.13C71.793 11.67 71.687 11.314 71.475 11.062C71.267 10.806 70.949 10.678 70.521 10.678C70.205 10.678 69.909 10.754 69.633 10.906C69.361 11.058 69.109 11.264 68.877 11.524V16H67.803V9.922H68.445C68.597 9.922 68.691 9.996 68.727 10.144L68.811 10.804ZM83.8528 14.224C83.9168 14.224 83.9728 14.25 84.0208 14.302L84.4828 14.8C84.1308 15.208 83.7028 15.526 83.1988 15.754C82.6988 15.982 82.0928 16.096 81.3808 16.096C80.7648 16.096 80.2048 15.99 79.7008 15.778C79.1968 15.562 78.7668 15.262 78.4108 14.878C78.0548 14.49 77.7788 14.026 77.5828 13.486C77.3868 12.946 77.2888 12.352 77.2888 11.704C77.2888 11.056 77.3908 10.462 77.5948 9.922C77.7988 9.382 78.0848 8.918 78.4528 8.53C78.8248 8.142 79.2688 7.842 79.7848 7.63C80.3008 7.414 80.8708 7.306 81.4948 7.306C82.1068 7.306 82.6468 7.404 83.1148 7.6C83.5828 7.796 83.9948 8.062 84.3508 8.398L83.9668 8.932C83.9428 8.972 83.9108 9.006 83.8708 9.034C83.8348 9.058 83.7848 9.07 83.7208 9.07C83.6488 9.07 83.5608 9.032 83.4568 8.956C83.3528 8.876 83.2168 8.788 83.0488 8.692C82.8808 8.596 82.6708 8.51 82.4188 8.434C82.1668 8.354 81.8568 8.314 81.4888 8.314C81.0448 8.314 80.6388 8.392 80.2708 8.548C79.9028 8.7 79.5848 8.922 79.3168 9.214C79.0528 9.506 78.8468 9.862 78.6988 10.282C78.5508 10.702 78.4768 11.176 78.4768 11.704C78.4768 12.24 78.5528 12.718 78.7048 13.138C78.8608 13.558 79.0708 13.914 79.3348 14.206C79.6028 14.494 79.9168 14.714 80.2768 14.866C80.6408 15.018 81.0328 15.094 81.4528 15.094C81.7088 15.094 81.9388 15.08 82.1428 15.052C82.3508 15.02 82.5408 14.972 82.7128 14.908C82.8888 14.844 83.0508 14.764 83.1988 14.668C83.3508 14.568 83.5008 14.45 83.6488 14.314C83.7168 14.254 83.7848 14.224 83.8528 14.224ZM88.8744 13.264C88.3824 13.28 87.9624 13.32 87.6144 13.384C87.2704 13.444 86.9884 13.524 86.7684 13.624C86.5524 13.724 86.3944 13.842 86.2944 13.978C86.1984 14.114 86.1504 14.266 86.1504 14.434C86.1504 14.594 86.1764 14.732 86.2284 14.848C86.2804 14.964 86.3504 15.06 86.4384 15.136C86.5304 15.208 86.6364 15.262 86.7564 15.298C86.8804 15.33 87.0124 15.346 87.1524 15.346C87.3404 15.346 87.5124 15.328 87.6684 15.292C87.8244 15.252 87.9704 15.196 88.1064 15.124C88.2464 15.052 88.3784 14.966 88.5024 14.866C88.6304 14.766 88.7544 14.652 88.8744 14.524V13.264ZM85.4244 10.78C85.7604 10.456 86.1224 10.214 86.5104 10.054C86.8984 9.894 87.3284 9.814 87.8004 9.814C88.1404 9.814 88.4424 9.87 88.7064 9.982C88.9704 10.094 89.1924 10.25 89.3724 10.45C89.5524 10.65 89.6884 10.892 89.7804 11.176C89.8724 11.46 89.9184 11.772 89.9184 12.112V16H89.4444C89.3404 16 89.2604 15.984 89.2044 15.952C89.1484 15.916 89.1044 15.848 89.0724 15.748L88.9524 15.172C88.7924 15.32 88.6364 15.452 88.4844 15.568C88.3324 15.68 88.1724 15.776 88.0044 15.856C87.8364 15.932 87.6564 15.99 87.4644 16.03C87.2764 16.074 87.0664 16.096 86.8344 16.096C86.5984 16.096 86.3764 16.064 86.1684 16C85.9604 15.932 85.7784 15.832 85.6224 15.7C85.4704 15.568 85.3484 15.402 85.2564 15.202C85.1684 14.998 85.1244 14.758 85.1244 14.482C85.1244 14.242 85.1904 14.012 85.3224 13.792C85.4544 13.568 85.6684 13.37 85.9644 13.198C86.2604 13.026 86.6464 12.886 87.1224 12.778C87.5984 12.666 88.1824 12.602 88.8744 12.586V12.112C88.8744 11.64 88.7724 11.284 88.5684 11.044C88.3644 10.8 88.0664 10.678 87.6744 10.678C87.4104 10.678 87.1884 10.712 87.0084 10.78C86.8324 10.844 86.6784 10.918 86.5464 11.002C86.4184 11.082 86.3064 11.156 86.2104 11.224C86.1184 11.288 86.0264 11.32 85.9344 11.32C85.8624 11.32 85.8004 11.302 85.7484 11.266C85.6964 11.226 85.6524 11.178 85.6164 11.122L85.4244 10.78ZM92.6492 7.162V16H91.5812V7.162H92.6492ZM95.4852 7.162V16H94.4172V7.162H95.4852ZM106.575 14.224C106.639 14.224 106.695 14.25 106.743 14.302L107.205 14.8C106.853 15.208 106.425 15.526 105.921 15.754C105.421 15.982 104.815 16.096 104.103 16.096C103.487 16.096 102.927 15.99 102.423 15.778C101.919 15.562 101.489 15.262 101.133 14.878C100.777 14.49 100.501 14.026 100.305 13.486C100.109 12.946 100.011 12.352 100.011 11.704C100.011 11.056 100.113 10.462 100.317 9.922C100.521 9.382 100.807 8.918 101.175 8.53C101.547 8.142 101.991 7.842 102.507 7.63C103.023 7.414 103.593 7.306 104.217 7.306C104.829 7.306 105.369 7.404 105.837 7.6C106.305 7.796 106.717 8.062 107.073 8.398L106.689 8.932C106.665 8.972 106.633 9.006 106.593 9.034C106.557 9.058 106.507 9.07 106.443 9.07C106.371 9.07 106.283 9.032 106.179 8.956C106.075 8.876 105.939 8.788 105.771 8.692C105.603 8.596 105.393 8.51 105.141 8.434C104.889 8.354 104.579 8.314 104.211 8.314C103.767 8.314 103.361 8.392 102.993 8.548C102.625 8.7 102.307 8.922 102.039 9.214C101.775 9.506 101.569 9.862 101.421 10.282C101.273 10.702 101.199 11.176 101.199 11.704C101.199 12.24 101.275 12.718 101.427 13.138C101.583 13.558 101.793 13.914 102.057 14.206C102.325 14.494 102.639 14.714 102.999 14.866C103.363 15.018 103.755 15.094 104.175 15.094C104.431 15.094 104.661 15.08 104.865 15.052C105.073 15.02 105.263 14.972 105.435 14.908C105.611 14.844 105.773 14.764 105.921 14.668C106.073 14.568 106.223 14.45 106.371 14.314C106.439 14.254 106.507 14.224 106.575 14.224ZM112.254 12.298C112.254 12.05 112.218 11.824 112.146 11.62C112.078 11.412 111.976 11.234 111.84 11.086C111.708 10.934 111.546 10.818 111.354 10.738C111.162 10.654 110.944 10.612 110.7 10.612C110.188 10.612 109.782 10.762 109.482 11.062C109.186 11.358 109.002 11.77 108.93 12.298H112.254ZM113.118 15.148C112.986 15.308 112.828 15.448 112.644 15.568C112.46 15.684 112.262 15.78 112.05 15.856C111.842 15.932 111.626 15.988 111.402 16.024C111.178 16.064 110.956 16.084 110.736 16.084C110.316 16.084 109.928 16.014 109.572 15.874C109.22 15.73 108.914 15.522 108.654 15.25C108.398 14.974 108.198 14.634 108.054 14.23C107.91 13.826 107.838 13.362 107.838 12.838C107.838 12.414 107.902 12.018 108.03 11.65C108.162 11.282 108.35 10.964 108.594 10.696C108.838 10.424 109.136 10.212 109.488 10.06C109.84 9.904 110.236 9.826 110.676 9.826C111.04 9.826 111.376 9.888 111.684 10.012C111.996 10.132 112.264 10.308 112.488 10.54C112.716 10.768 112.894 11.052 113.022 11.392C113.15 11.728 113.214 12.112 113.214 12.544C113.214 12.712 113.196 12.824 113.16 12.88C113.124 12.936 113.056 12.964 112.956 12.964H108.894C108.906 13.348 108.958 13.682 109.05 13.966C109.146 14.25 109.278 14.488 109.446 14.68C109.614 14.868 109.814 15.01 110.046 15.106C110.278 15.198 110.538 15.244 110.826 15.244C111.094 15.244 111.324 15.214 111.516 15.154C111.712 15.09 111.88 15.022 112.02 14.95C112.16 14.878 112.276 14.812 112.368 14.752C112.464 14.688 112.546 14.656 112.614 14.656C112.702 14.656 112.77 14.69 112.818 14.758L113.118 15.148ZM115.534 10.804C115.666 10.656 115.806 10.522 115.954 10.402C116.102 10.282 116.258 10.18 116.422 10.096C116.59 10.008 116.766 9.942 116.95 9.898C117.138 9.85 117.34 9.826 117.556 9.826C117.888 9.826 118.18 9.882 118.432 9.994C118.688 10.102 118.9 10.258 119.068 10.462C119.24 10.662 119.37 10.904 119.458 11.188C119.546 11.472 119.59 11.786 119.59 12.13V16H118.516V12.13C118.516 11.67 118.41 11.314 118.198 11.062C117.99 10.806 117.672 10.678 117.244 10.678C116.928 10.678 116.632 10.754 116.356 10.906C116.084 11.058 115.832 11.264 115.6 11.524V16H114.526V9.922H115.168C115.32 9.922 115.414 9.996 115.45 10.144L115.534 10.804ZM123.001 16.096C122.521 16.096 122.151 15.962 121.891 15.694C121.635 15.426 121.507 15.04 121.507 14.536V10.816H120.775C120.711 10.816 120.657 10.798 120.613 10.762C120.569 10.722 120.547 10.662 120.547 10.582V10.156L121.543 10.03L121.789 8.152C121.801 8.092 121.827 8.044 121.867 8.008C121.911 7.968 121.967 7.948 122.035 7.948H122.575V10.042H124.333V10.816H122.575V14.464C122.575 14.72 122.637 14.91 122.761 15.034C122.885 15.158 123.045 15.22 123.241 15.22C123.353 15.22 123.449 15.206 123.529 15.178C123.613 15.146 123.685 15.112 123.745 15.076C123.805 15.04 123.855 15.008 123.895 14.98C123.939 14.948 123.977 14.932 124.009 14.932C124.065 14.932 124.115 14.966 124.159 15.034L124.471 15.544C124.287 15.716 124.065 15.852 123.805 15.952C123.545 16.048 123.277 16.096 123.001 16.096ZM129.469 12.298C129.469 12.05 129.433 11.824 129.361 11.62C129.293 11.412 129.191 11.234 129.055 11.086C128.923 10.934 128.761 10.818 128.569 10.738C128.377 10.654 128.159 10.612 127.915 10.612C127.403 10.612 126.997 10.762 126.697 11.062C126.401 11.358 126.217 11.77 126.145 12.298H129.469ZM130.333 15.148C130.201 15.308 130.043 15.448 129.859 15.568C129.675 15.684 129.477 15.78 129.265 15.856C129.057 15.932 128.841 15.988 128.617 16.024C128.393 16.064 128.171 16.084 127.951 16.084C127.531 16.084 127.143 16.014 126.787 15.874C126.435 15.73 126.129 15.522 125.869 15.25C125.613 14.974 125.413 14.634 125.269 14.23C125.125 13.826 125.053 13.362 125.053 12.838C125.053 12.414 125.117 12.018 125.245 11.65C125.377 11.282 125.565 10.964 125.809 10.696C126.053 10.424 126.351 10.212 126.703 10.06C127.055 9.904 127.451 9.826 127.891 9.826C128.255 9.826 128.591 9.888 128.899 10.012C129.211 10.132 129.479 10.308 129.703 10.54C129.931 10.768 130.109 11.052 130.237 11.392C130.365 11.728 130.429 12.112 130.429 12.544C130.429 12.712 130.411 12.824 130.375 12.88C130.339 12.936 130.271 12.964 130.171 12.964H126.109C126.121 13.348 126.173 13.682 126.265 13.966C126.361 14.25 126.493 14.488 126.661 14.68C126.829 14.868 127.029 15.01 127.261 15.106C127.493 15.198 127.753 15.244 128.041 15.244C128.309 15.244 128.539 15.214 128.731 15.154C128.927 15.09 129.095 15.022 129.235 14.95C129.375 14.878 129.491 14.812 129.583 14.752C129.679 14.688 129.761 14.656 129.829 14.656C129.917 14.656 129.985 14.69 130.033 14.758L130.333 15.148ZM132.755 11.14C132.947 10.724 133.183 10.4 133.463 10.168C133.743 9.932 134.085 9.814 134.489 9.814C134.617 9.814 134.739 9.828 134.855 9.856C134.975 9.884 135.081 9.928 135.173 9.988L135.095 10.786C135.071 10.886 135.011 10.936 134.915 10.936C134.859 10.936 134.777 10.924 134.669 10.9C134.561 10.876 134.439 10.864 134.303 10.864C134.111 10.864 133.939 10.892 133.787 10.948C133.639 11.004 133.505 11.088 133.385 11.2C133.269 11.308 133.163 11.444 133.067 11.608C132.975 11.768 132.891 11.952 132.815 12.16V16H131.741V9.922H132.353C132.469 9.922 132.549 9.944 132.593 9.988C132.637 10.032 132.667 10.108 132.683 10.216L132.755 11.14Z" fill="white"/>
<path d="M33.648 34.296V30.48H40.296V48H36.024V34.296H33.648ZM55.4394 34.056H47.9514V37.368C48.2714 37.016 48.7194 36.728 49.2954 36.504C49.8714 36.28 50.4954 36.168 51.1674 36.168C52.3674 36.168 53.3594 36.44 54.1434 36.984C54.9434 37.528 55.5274 38.232 55.8954 39.096C56.2634 39.96 56.4474 40.896 56.4474 41.904C56.4474 43.776 55.9194 45.264 54.8634 46.368C53.8074 47.456 52.3194 48 50.3994 48C49.1194 48 48.0074 47.784 47.0634 47.352C46.1194 46.904 45.3914 46.288 44.8794 45.504C44.3674 44.72 44.0874 43.816 44.0394 42.792H48.0474C48.1434 43.288 48.3754 43.704 48.7434 44.04C49.1114 44.36 49.6154 44.52 50.2554 44.52C51.0074 44.52 51.5674 44.28 51.9354 43.8C52.3034 43.32 52.4874 42.68 52.4874 41.88C52.4874 41.096 52.2954 40.496 51.9114 40.08C51.5274 39.664 50.9674 39.456 50.2314 39.456C49.6874 39.456 49.2394 39.592 48.8874 39.864C48.5354 40.12 48.3034 40.464 48.1914 40.896H44.2314V30.456H55.4394V34.056ZM58.7128 39C58.7128 36.248 59.2408 34.08 60.2968 32.496C61.3688 30.912 63.0888 30.12 65.4568 30.12C67.8248 30.12 69.5368 30.912 70.5928 32.496C71.6648 34.08 72.2008 36.248 72.2008 39C72.2008 41.784 71.6648 43.968 70.5928 45.552C69.5368 47.136 67.8248 47.928 65.4568 47.928C63.0888 47.928 61.3688 47.136 60.2968 45.552C59.2408 43.968 58.7128 41.784 58.7128 39ZM68.1688 39C68.1688 37.384 67.9928 36.144 67.6408 35.28C67.2888 34.4 66.5608 33.96 65.4568 33.96C64.3528 33.96 63.6248 34.4 63.2728 35.28C62.9208 36.144 62.7448 37.384 62.7448 39C62.7448 40.088 62.8088 40.992 62.9368 41.712C63.0648 42.416 63.3208 42.992 63.7048 43.44C64.1048 43.872 64.6888 44.088 65.4568 44.088C66.2248 44.088 66.8008 43.872 67.1848 43.44C67.5848 42.992 67.8488 42.416 67.9768 41.712C68.1048 40.992 68.1688 40.088 68.1688 39ZM74.3691 39C74.3691 36.248 74.8971 34.08 75.9531 32.496C77.0251 30.912 78.7451 30.12 81.1131 30.12C83.4811 30.12 85.1931 30.912 86.2491 32.496C87.3211 34.08 87.8571 36.248 87.8571 39C87.8571 41.784 87.3211 43.968 86.2491 45.552C85.1931 47.136 83.4811 47.928 81.1131 47.928C78.7451 47.928 77.0251 47.136 75.9531 45.552C74.8971 43.968 74.3691 41.784 74.3691 39ZM83.8251 39C83.8251 37.384 83.6491 36.144 83.2971 35.28C82.9451 34.4 82.2171 33.96 81.1131 33.96C80.0091 33.96 79.2811 34.4 78.9291 35.28C78.5771 36.144 78.4011 37.384 78.4011 39C78.4011 40.088 78.4651 40.992 78.5931 41.712C78.7211 42.416 78.9771 42.992 79.3611 43.44C79.7611 43.872 80.3451 44.088 81.1131 44.088C81.8811 44.088 82.4571 43.872 82.8411 43.44C83.2411 42.992 83.5051 42.416 83.6331 41.712C83.7611 40.992 83.8251 40.088 83.8251 39ZM107.447 34.056H99.9593V37.368C100.279 37.016 100.727 36.728 101.303 36.504C101.879 36.28 102.503 36.168 103.175 36.168C104.375 36.168 105.367 36.44 106.151 36.984C106.951 37.528 107.535 38.232 107.903 39.096C108.271 39.96 108.455 40.896 108.455 41.904C108.455 43.776 107.927 45.264 106.871 46.368C105.815 47.456 104.327 48 102.407 48C101.127 48 100.015 47.784 99.0713 47.352C98.1273 46.904 97.3993 46.288 96.8873 45.504C96.3753 44.72 96.0953 43.816 96.0473 42.792H100.055C100.151 43.288 100.383 43.704 100.751 44.04C101.119 44.36 101.623 44.52 102.263 44.52C103.015 44.52 103.575 44.28 103.943 43.8C104.311 43.32 104.495 42.68 104.495 41.88C104.495 41.096 104.303 40.496 103.919 40.08C103.535 39.664 102.975 39.456 102.239 39.456C101.695 39.456 101.247 39.592 100.895 39.864C100.543 40.12 100.311 40.464 100.199 40.896H96.2393V30.456H107.447V34.056ZM119.385 35.208C119.257 34.616 119.033 34.176 118.713 33.888C118.393 33.584 117.937 33.432 117.345 33.432C116.433 33.432 115.777 33.832 115.377 34.632C114.977 35.416 114.769 36.664 114.753 38.376C115.105 37.816 115.609 37.376 116.265 37.056C116.937 36.736 117.673 36.576 118.473 36.576C120.041 36.576 121.297 37.072 122.241 38.064C123.201 39.056 123.681 40.44 123.681 42.216C123.681 43.384 123.441 44.408 122.961 45.288C122.497 46.168 121.809 46.856 120.897 47.352C120.001 47.848 118.937 48.096 117.705 48.096C115.241 48.096 113.529 47.328 112.569 45.792C111.609 44.24 111.129 42.016 111.129 39.12C111.129 36.08 111.633 33.824 112.641 32.352C113.665 30.864 115.297 30.12 117.537 30.12C118.737 30.12 119.745 30.36 120.561 30.84C121.393 31.304 122.017 31.92 122.433 32.688C122.865 33.456 123.121 34.296 123.201 35.208H119.385ZM117.489 39.816C116.801 39.816 116.225 40.024 115.761 40.44C115.313 40.84 115.089 41.416 115.089 42.168C115.089 42.936 115.297 43.536 115.713 43.968C116.145 44.4 116.753 44.616 117.537 44.616C118.241 44.616 118.793 44.408 119.193 43.992C119.609 43.56 119.817 42.976 119.817 42.24C119.817 41.488 119.617 40.896 119.217 40.464C118.817 40.032 118.241 39.816 117.489 39.816ZM130.418 42.864C130.658 44.128 131.394 44.76 132.626 44.76C133.474 44.76 134.074 44.384 134.426 43.632C134.778 42.88 134.954 41.656 134.954 39.96C134.602 40.456 134.122 40.84 133.514 41.112C132.906 41.384 132.226 41.52 131.474 41.52C130.45 41.52 129.538 41.312 128.738 40.896C127.938 40.464 127.306 39.832 126.842 39C126.394 38.152 126.17 37.128 126.17 35.928C126.17 34.744 126.41 33.712 126.89 32.832C127.386 31.952 128.082 31.272 128.978 30.792C129.89 30.312 130.962 30.072 132.194 30.072C134.562 30.072 136.218 30.808 137.162 32.28C138.106 33.752 138.578 35.92 138.578 38.784C138.578 40.864 138.386 42.584 138.002 43.944C137.634 45.288 137.002 46.312 136.106 47.016C135.226 47.72 134.018 48.072 132.482 48.072C131.266 48.072 130.226 47.832 129.362 47.352C128.514 46.872 127.858 46.24 127.394 45.456C126.946 44.672 126.69 43.808 126.626 42.864H130.418ZM132.41 38.28C133.082 38.28 133.618 38.08 134.018 37.68C134.418 37.264 134.618 36.704 134.618 36C134.618 35.232 134.41 34.64 133.994 34.224C133.578 33.808 133.018 33.6 132.314 33.6C131.61 33.6 131.05 33.816 130.634 34.248C130.234 34.664 130.034 35.24 130.034 35.976C130.034 36.664 130.234 37.224 130.634 37.656C131.05 38.072 131.642 38.28 132.41 38.28Z" fill="white"/>
<path opacity="0.75" d="M37.07 55.632C36.824 55.64 36.614 55.66 36.44 55.692C36.268 55.722 36.127 55.762 36.017 55.812C35.909 55.862 35.83 55.921 35.78 55.989C35.732 56.057 35.708 56.133 35.708 56.217C35.708 56.297 35.721 56.366 35.747 56.424C35.773 56.482 35.808 56.53 35.852 56.568C35.898 56.604 35.951 56.631 36.011 56.649C36.073 56.665 36.139 56.673 36.209 56.673C36.303 56.673 36.389 56.664 36.467 56.646C36.545 56.626 36.618 56.598 36.686 56.562C36.756 56.526 36.822 56.483 36.884 56.433C36.948 56.383 37.01 56.326 37.07 56.262V55.632ZM35.345 54.39C35.513 54.228 35.694 54.107 35.888 54.027C36.082 53.947 36.297 53.907 36.533 53.907C36.703 53.907 36.854 53.935 36.986 53.991C37.118 54.047 37.229 54.125 37.319 54.225C37.409 54.325 37.477 54.446 37.523 54.588C37.569 54.73 37.592 54.886 37.592 55.056V57H37.355C37.303 57 37.263 56.992 37.235 56.976C37.207 56.958 37.185 56.924 37.169 56.874L37.109 56.586C37.029 56.66 36.951 56.726 36.875 56.784C36.799 56.84 36.719 56.888 36.635 56.928C36.551 56.966 36.461 56.995 36.365 57.015C36.271 57.037 36.166 57.048 36.05 57.048C35.932 57.048 35.821 57.032 35.717 57C35.613 56.966 35.522 56.916 35.444 56.85C35.368 56.784 35.307 56.701 35.261 56.601C35.217 56.499 35.195 56.379 35.195 56.241C35.195 56.121 35.228 56.006 35.294 55.896C35.36 55.784 35.467 55.685 35.615 55.599C35.763 55.513 35.956 55.443 36.194 55.389C36.432 55.333 36.724 55.301 37.07 55.293V55.056C37.07 54.82 37.019 54.642 36.917 54.522C36.815 54.4 36.666 54.339 36.47 54.339C36.338 54.339 36.227 54.356 36.137 54.39C36.049 54.422 35.972 54.459 35.906 54.501C35.842 54.541 35.786 54.578 35.738 54.612C35.692 54.644 35.646 54.66 35.6 54.66C35.564 54.66 35.533 54.651 35.507 54.633C35.481 54.613 35.459 54.589 35.441 54.561L35.345 54.39ZM39.2974 57.048C39.0574 57.048 38.8724 56.981 38.7424 56.847C38.6144 56.713 38.5504 56.52 38.5504 56.268V54.408H38.1844C38.1524 54.408 38.1254 54.399 38.1034 54.381C38.0814 54.361 38.0704 54.331 38.0704 54.291V54.078L38.5684 54.015L38.6914 53.076C38.6974 53.046 38.7104 53.022 38.7304 53.004C38.7524 52.984 38.7804 52.974 38.8144 52.974H39.0844V54.021H39.9634V54.408H39.0844V56.232C39.0844 56.36 39.1154 56.455 39.1774 56.517C39.2394 56.579 39.3194 56.61 39.4174 56.61C39.4734 56.61 39.5214 56.603 39.5614 56.589C39.6034 56.573 39.6394 56.556 39.6694 56.538C39.6994 56.52 39.7244 56.504 39.7444 56.49C39.7664 56.474 39.7854 56.466 39.8014 56.466C39.8294 56.466 39.8544 56.483 39.8764 56.517L40.0324 56.772C39.9404 56.858 39.8294 56.926 39.6994 56.976C39.5694 57.024 39.4354 57.048 39.2974 57.048ZM42.1618 55.632C41.9158 55.64 41.7058 55.66 41.5318 55.692C41.3598 55.722 41.2188 55.762 41.1088 55.812C41.0008 55.862 40.9218 55.921 40.8718 55.989C40.8238 56.057 40.7998 56.133 40.7998 56.217C40.7998 56.297 40.8128 56.366 40.8388 56.424C40.8648 56.482 40.8998 56.53 40.9438 56.568C40.9898 56.604 41.0428 56.631 41.1028 56.649C41.1648 56.665 41.2308 56.673 41.3008 56.673C41.3948 56.673 41.4808 56.664 41.5588 56.646C41.6368 56.626 41.7098 56.598 41.7778 56.562C41.8478 56.526 41.9138 56.483 41.9758 56.433C42.0398 56.383 42.1018 56.326 42.1618 56.262V55.632ZM40.4368 54.39C40.6048 54.228 40.7858 54.107 40.9798 54.027C41.1738 53.947 41.3888 53.907 41.6248 53.907C41.7948 53.907 41.9458 53.935 42.0778 53.991C42.2098 54.047 42.3208 54.125 42.4108 54.225C42.5008 54.325 42.5688 54.446 42.6148 54.588C42.6608 54.73 42.6838 54.886 42.6838 55.056V57H42.4468C42.3948 57 42.3548 56.992 42.3268 56.976C42.2988 56.958 42.2768 56.924 42.2608 56.874L42.2008 56.586C42.1208 56.66 42.0428 56.726 41.9668 56.784C41.8908 56.84 41.8108 56.888 41.7268 56.928C41.6428 56.966 41.5528 56.995 41.4568 57.015C41.3628 57.037 41.2578 57.048 41.1418 57.048C41.0238 57.048 40.9128 57.032 40.8088 57C40.7048 56.966 40.6138 56.916 40.5358 56.85C40.4598 56.784 40.3988 56.701 40.3528 56.601C40.3088 56.499 40.2868 56.379 40.2868 56.241C40.2868 56.121 40.3198 56.006 40.3858 55.896C40.4518 55.784 40.5588 55.685 40.7068 55.599C40.8548 55.513 41.0478 55.443 41.2858 55.389C41.5238 55.333 41.8158 55.301 42.1618 55.293V55.056C42.1618 54.82 42.1108 54.642 42.0088 54.522C41.9068 54.4 41.7578 54.339 41.5618 54.339C41.4298 54.339 41.3188 54.356 41.2288 54.39C41.1408 54.422 41.0638 54.459 40.9978 54.501C40.9338 54.541 40.8778 54.578 40.8298 54.612C40.7838 54.644 40.7378 54.66 40.6918 54.66C40.6558 54.66 40.6248 54.651 40.5988 54.633C40.5728 54.613 40.5508 54.589 40.5328 54.561L40.4368 54.39ZM45.9962 53.961V57H45.6782C45.6022 57 45.5542 56.963 45.5342 56.889L45.4922 56.562C45.3602 56.708 45.2122 56.826 45.0482 56.916C44.8842 57.004 44.6962 57.048 44.4842 57.048C44.3182 57.048 44.1712 57.021 44.0432 56.967C43.9172 56.911 43.8112 56.833 43.7252 56.733C43.6392 56.633 43.5742 56.512 43.5302 56.37C43.4882 56.228 43.4672 56.071 43.4672 55.899V53.961H44.0012V55.899C44.0012 56.129 44.0532 56.307 44.1572 56.433C44.2632 56.559 44.4242 56.622 44.6402 56.622C44.7982 56.622 44.9452 56.585 45.0812 56.511C45.2192 56.435 45.3462 56.331 45.4622 56.199V53.961H45.9962ZM51.2551 54.852C51.2551 55.228 51.2141 55.554 51.1321 55.83C51.0521 56.104 50.9421 56.331 50.8021 56.511C50.6621 56.691 50.4961 56.825 50.3041 56.913C50.1141 57.001 49.9101 57.045 49.6921 57.045C49.4721 57.045 49.2671 57.001 49.0771 56.913C48.8891 56.825 48.7251 56.691 48.5851 56.511C48.4451 56.331 48.3351 56.104 48.2551 55.83C48.1751 55.554 48.1351 55.228 48.1351 54.852C48.1351 54.476 48.1751 54.15 48.2551 53.874C48.3351 53.598 48.4451 53.37 48.5851 53.19C48.7251 53.008 48.8891 52.873 49.0771 52.785C49.2671 52.697 49.4721 52.653 49.6921 52.653C49.9101 52.653 50.1141 52.697 50.3041 52.785C50.4961 52.873 50.6621 53.008 50.8021 53.19C50.9421 53.37 51.0521 53.598 51.1321 53.874C51.2141 54.15 51.2551 54.476 51.2551 54.852ZM50.7001 54.852C50.7001 54.524 50.6721 54.249 50.6161 54.027C50.5621 53.803 50.4881 53.623 50.3941 53.487C50.3021 53.351 50.1951 53.254 50.0731 53.196C49.9511 53.136 49.8241 53.106 49.6921 53.106C49.5601 53.106 49.4331 53.136 49.3111 53.196C49.1891 53.254 49.0821 53.351 48.9901 53.487C48.8981 53.623 48.8241 53.803 48.7681 54.027C48.7141 54.249 48.6871 54.524 48.6871 54.852C48.6871 55.18 48.7141 55.455 48.7681 55.677C48.8241 55.899 48.8981 56.078 48.9901 56.214C49.0821 56.35 49.1891 56.448 49.3111 56.508C49.4331 56.566 49.5601 56.595 49.6921 56.595C49.8241 56.595 49.9511 56.566 50.0731 56.508C50.1951 56.448 50.3021 56.35 50.3941 56.214C50.4881 56.078 50.5621 55.899 50.6161 55.677C50.6721 55.455 50.7001 55.18 50.7001 54.852ZM54.3965 56.493C54.4545 56.493 54.5005 56.51 54.5345 56.544C54.5685 56.578 54.5855 56.622 54.5855 56.676V57H51.7175V56.817C51.7175 56.779 51.7255 56.74 51.7415 56.7C51.7575 56.66 51.7825 56.623 51.8165 56.589L53.1935 55.206C53.3075 55.09 53.4115 54.979 53.5055 54.873C53.5995 54.765 53.6795 54.657 53.7455 54.549C53.8115 54.441 53.8625 54.332 53.8985 54.222C53.9345 54.11 53.9525 53.991 53.9525 53.865C53.9525 53.739 53.9325 53.629 53.8925 53.535C53.8525 53.439 53.7975 53.36 53.7275 53.298C53.6595 53.236 53.5785 53.19 53.4845 53.16C53.3905 53.128 53.2895 53.112 53.1815 53.112C53.0715 53.112 52.9705 53.128 52.8785 53.16C52.7865 53.192 52.7045 53.237 52.6325 53.295C52.5625 53.351 52.5035 53.418 52.4555 53.496C52.4075 53.574 52.3735 53.66 52.3535 53.754C52.3295 53.824 52.2965 53.871 52.2545 53.895C52.2145 53.917 52.1575 53.923 52.0835 53.913L51.8045 53.865C51.8325 53.669 51.8865 53.496 51.9665 53.346C52.0485 53.194 52.1505 53.067 52.2725 52.965C52.3965 52.863 52.5375 52.786 52.6955 52.734C52.8535 52.68 53.0245 52.653 53.2085 52.653C53.3905 52.653 53.5605 52.68 53.7185 52.734C53.8765 52.788 54.0135 52.867 54.1295 52.971C54.2455 53.073 54.3365 53.198 54.4025 53.346C54.4685 53.494 54.5015 53.662 54.5015 53.85C54.5015 54.01 54.4775 54.159 54.4295 54.297C54.3815 54.433 54.3165 54.563 54.2345 54.687C54.1525 54.811 54.0575 54.932 53.9495 55.05C53.8435 55.168 53.7305 55.287 53.6105 55.407L52.4765 56.565C52.5565 56.543 52.6375 56.526 52.7195 56.514C52.8015 56.5 52.8805 56.493 52.9565 56.493H54.3965ZM57.97 56.592V57H55.666V56.592H56.587V53.661C56.587 53.573 56.59 53.484 56.596 53.394L55.831 54.051C55.805 54.073 55.779 54.087 55.753 54.093C55.727 54.097 55.703 54.097 55.681 54.093C55.659 54.089 55.638 54.081 55.618 54.069C55.6 54.057 55.586 54.044 55.576 54.03L55.408 53.799L56.689 52.692H57.124V56.592H57.97ZM58.7715 54.975H60.2535V55.428H58.7715V54.975ZM62.363 56.622C62.503 56.622 62.628 56.603 62.738 56.565C62.85 56.525 62.944 56.47 63.02 56.4C63.098 56.328 63.157 56.243 63.197 56.145C63.239 56.045 63.26 55.935 63.26 55.815C63.26 55.667 63.235 55.541 63.185 55.437C63.137 55.331 63.071 55.245 62.987 55.179C62.905 55.113 62.81 55.065 62.702 55.035C62.594 55.003 62.481 54.987 62.363 54.987C62.245 54.987 62.132 55.003 62.024 55.035C61.916 55.065 61.82 55.113 61.736 55.179C61.654 55.245 61.588 55.331 61.538 55.437C61.49 55.541 61.466 55.667 61.466 55.815C61.466 55.935 61.486 56.045 61.526 56.145C61.568 56.243 61.627 56.328 61.703 56.4C61.781 56.47 61.875 56.525 61.985 56.565C62.097 56.603 62.223 56.622 62.363 56.622ZM62.363 53.067C62.235 53.067 62.122 53.086 62.024 53.124C61.928 53.162 61.847 53.214 61.781 53.28C61.717 53.346 61.668 53.423 61.634 53.511C61.602 53.599 61.586 53.693 61.586 53.793C61.586 53.891 61.6 53.986 61.628 54.078C61.656 54.17 61.701 54.252 61.763 54.324C61.825 54.394 61.905 54.451 62.003 54.495C62.103 54.537 62.223 54.558 62.363 54.558C62.503 54.558 62.622 54.537 62.72 54.495C62.82 54.451 62.901 54.394 62.963 54.324C63.025 54.252 63.07 54.17 63.098 54.078C63.126 53.986 63.14 53.891 63.14 53.793C63.14 53.693 63.123 53.599 63.089 53.511C63.057 53.423 63.008 53.346 62.942 53.28C62.878 53.214 62.797 53.162 62.699 53.124C62.603 53.086 62.491 53.067 62.363 53.067ZM62.978 54.759C63.246 54.835 63.452 54.962 63.596 55.14C63.74 55.318 63.812 55.546 63.812 55.824C63.812 56.012 63.776 56.182 63.704 56.334C63.634 56.484 63.535 56.612 63.407 56.718C63.281 56.824 63.129 56.906 62.951 56.964C62.773 57.02 62.577 57.048 62.363 57.048C62.149 57.048 61.953 57.02 61.775 56.964C61.597 56.906 61.444 56.824 61.316 56.718C61.188 56.612 61.089 56.484 61.019 56.334C60.949 56.182 60.914 56.012 60.914 55.824C60.914 55.546 60.986 55.318 61.13 55.14C61.274 54.962 61.48 54.835 61.748 54.759C61.522 54.675 61.351 54.55 61.235 54.384C61.121 54.216 61.064 54.016 61.064 53.784C61.064 53.626 61.095 53.478 61.157 53.34C61.219 53.202 61.307 53.082 61.421 52.98C61.535 52.878 61.671 52.798 61.829 52.74C61.989 52.682 62.167 52.653 62.363 52.653C62.557 52.653 62.734 52.682 62.894 52.74C63.054 52.798 63.191 52.878 63.305 52.98C63.419 53.082 63.507 53.202 63.569 53.34C63.631 53.478 63.662 53.626 63.662 53.784C63.662 54.016 63.604 54.216 63.488 54.384C63.374 54.55 63.204 54.675 62.978 54.759ZM67.4035 54.852C67.4035 55.228 67.3625 55.554 67.2805 55.83C67.2005 56.104 67.0905 56.331 66.9505 56.511C66.8105 56.691 66.6445 56.825 66.4525 56.913C66.2625 57.001 66.0585 57.045 65.8405 57.045C65.6205 57.045 65.4155 57.001 65.2255 56.913C65.0375 56.825 64.8735 56.691 64.7335 56.511C64.5935 56.331 64.4835 56.104 64.4035 55.83C64.3235 55.554 64.2835 55.228 64.2835 54.852C64.2835 54.476 64.3235 54.15 64.4035 53.874C64.4835 53.598 64.5935 53.37 64.7335 53.19C64.8735 53.008 65.0375 52.873 65.2255 52.785C65.4155 52.697 65.6205 52.653 65.8405 52.653C66.0585 52.653 66.2625 52.697 66.4525 52.785C66.6445 52.873 66.8105 53.008 66.9505 53.19C67.0905 53.37 67.2005 53.598 67.2805 53.874C67.3625 54.15 67.4035 54.476 67.4035 54.852ZM66.8485 54.852C66.8485 54.524 66.8205 54.249 66.7645 54.027C66.7105 53.803 66.6365 53.623 66.5425 53.487C66.4505 53.351 66.3435 53.254 66.2215 53.196C66.0995 53.136 65.9725 53.106 65.8405 53.106C65.7085 53.106 65.5815 53.136 65.4595 53.196C65.3375 53.254 65.2305 53.351 65.1385 53.487C65.0465 53.623 64.9725 53.803 64.9165 54.027C64.8625 54.249 64.8355 54.524 64.8355 54.852C64.8355 55.18 64.8625 55.455 64.9165 55.677C64.9725 55.899 65.0465 56.078 65.1385 56.214C65.2305 56.35 65.3375 56.448 65.4595 56.508C65.5815 56.566 65.7085 56.595 65.8405 56.595C65.9725 56.595 66.0995 56.566 66.2215 56.508C66.3435 56.448 66.4505 56.35 66.5425 56.214C66.6365 56.078 66.7105 55.899 66.7645 55.677C66.8205 55.455 66.8485 55.18 66.8485 54.852ZM69.318 56.604C69.462 56.604 69.592 56.581 69.708 56.535C69.826 56.489 69.926 56.425 70.008 56.343C70.092 56.261 70.156 56.164 70.2 56.052C70.246 55.94 70.269 55.818 70.269 55.686C70.269 55.546 70.247 55.42 70.203 55.308C70.159 55.194 70.096 55.098 70.014 55.02C69.934 54.94 69.838 54.879 69.726 54.837C69.614 54.795 69.491 54.774 69.357 54.774C69.213 54.774 69.083 54.799 68.967 54.849C68.851 54.897 68.752 54.963 68.67 55.047C68.59 55.129 68.528 55.225 68.484 55.335C68.442 55.443 68.421 55.556 68.421 55.674C68.421 55.812 68.441 55.938 68.481 56.052C68.521 56.166 68.579 56.264 68.655 56.346C68.733 56.428 68.827 56.492 68.937 56.538C69.049 56.582 69.176 56.604 69.318 56.604ZM69.006 54.312C68.968 54.36 68.931 54.407 68.895 54.453C68.861 54.497 68.828 54.541 68.796 54.585C68.898 54.515 69.01 54.461 69.132 54.423C69.254 54.385 69.387 54.366 69.531 54.366C69.705 54.366 69.869 54.395 70.023 54.453C70.177 54.509 70.311 54.592 70.425 54.702C70.541 54.81 70.633 54.944 70.701 55.104C70.769 55.262 70.803 55.443 70.803 55.647C70.803 55.845 70.767 56.029 70.695 56.199C70.623 56.369 70.522 56.517 70.392 56.643C70.264 56.769 70.109 56.868 69.927 56.94C69.747 57.012 69.548 57.048 69.33 57.048C69.114 57.048 68.918 57.014 68.742 56.946C68.566 56.876 68.416 56.778 68.292 56.652C68.17 56.524 68.075 56.37 68.007 56.19C67.941 56.008 67.908 55.805 67.908 55.581C67.908 55.393 67.949 55.193 68.031 54.981C68.115 54.767 68.248 54.539 68.43 54.297L69.522 52.83C69.55 52.794 69.588 52.764 69.636 52.74C69.686 52.714 69.743 52.701 69.807 52.701H70.281L69.006 54.312ZM71.4545 53.865C71.4825 53.669 71.5365 53.496 71.6165 53.346C71.6965 53.194 71.7975 53.067 71.9195 52.965C72.0435 52.863 72.1845 52.786 72.3425 52.734C72.5025 52.68 72.6745 52.653 72.8585 52.653C73.0405 52.653 73.2085 52.679 73.3625 52.731C73.5165 52.783 73.6485 52.857 73.7585 52.953C73.8705 53.049 73.9575 53.165 74.0195 53.301C74.0815 53.437 74.1125 53.588 74.1125 53.754C74.1125 53.89 74.0945 54.012 74.0585 54.12C74.0245 54.226 73.9745 54.319 73.9085 54.399C73.8445 54.479 73.7665 54.547 73.6745 54.603C73.5825 54.659 73.4795 54.705 73.3655 54.741C73.6455 54.813 73.8555 54.937 73.9955 55.113C74.1375 55.287 74.2085 55.505 74.2085 55.767C74.2085 55.965 74.1705 56.143 74.0945 56.301C74.0205 56.459 73.9185 56.594 73.7885 56.706C73.6585 56.816 73.5065 56.901 73.3325 56.961C73.1605 57.019 72.9755 57.048 72.7775 57.048C72.5495 57.048 72.3545 57.02 72.1925 56.964C72.0305 56.906 71.8935 56.827 71.7815 56.727C71.6695 56.627 71.5775 56.509 71.5055 56.373C71.4335 56.235 71.3725 56.086 71.3225 55.926L71.5535 55.83C71.6135 55.804 71.6715 55.797 71.7275 55.809C71.7855 55.821 71.8275 55.854 71.8535 55.908C71.8795 55.964 71.9115 56.031 71.9495 56.109C71.9895 56.187 72.0435 56.262 72.1115 56.334C72.1795 56.406 72.2655 56.467 72.3695 56.517C72.4755 56.567 72.6095 56.592 72.7715 56.592C72.9215 56.592 73.0525 56.568 73.1645 56.52C73.2785 56.47 73.3725 56.406 73.4465 56.328C73.5225 56.25 73.5795 56.163 73.6175 56.067C73.6555 55.971 73.6745 55.876 73.6745 55.782C73.6745 55.666 73.6595 55.56 73.6295 55.464C73.5995 55.368 73.5435 55.285 73.4615 55.215C73.3795 55.145 73.2665 55.09 73.1225 55.05C72.9805 55.01 72.7975 54.99 72.5735 54.99V54.603C72.7575 54.601 72.9135 54.581 73.0415 54.543C73.1715 54.505 73.2765 54.453 73.3565 54.387C73.4385 54.321 73.4975 54.242 73.5335 54.15C73.5715 54.058 73.5905 53.956 73.5905 53.844C73.5905 53.72 73.5705 53.612 73.5305 53.52C73.4925 53.428 73.4395 53.352 73.3715 53.292C73.3035 53.232 73.2225 53.187 73.1285 53.157C73.0365 53.127 72.9365 53.112 72.8285 53.112C72.7205 53.112 72.6195 53.128 72.5255 53.16C72.4335 53.192 72.3515 53.237 72.2795 53.295C72.2095 53.351 72.1505 53.418 72.1025 53.496C72.0545 53.574 72.0205 53.66 72.0005 53.754C71.9745 53.824 71.9415 53.871 71.9015 53.895C71.8635 53.917 71.8075 53.923 71.7335 53.913L71.4545 53.865ZM75.6309 54.324C75.8549 54.276 76.0609 54.252 76.2489 54.252C76.4729 54.252 76.6709 54.285 76.8429 54.351C77.0149 54.417 77.1579 54.508 77.2719 54.624C77.3879 54.74 77.4749 54.877 77.5329 55.035C77.5929 55.193 77.6229 55.365 77.6229 55.551C77.6229 55.779 77.5829 55.985 77.5029 56.169C77.4249 56.353 77.3159 56.511 77.1759 56.643C77.0379 56.773 76.8749 56.873 76.6869 56.943C76.4989 57.013 76.2959 57.048 76.0779 57.048C75.9519 57.048 75.8309 57.035 75.7149 57.009C75.5989 56.985 75.4899 56.952 75.3879 56.91C75.2879 56.868 75.1949 56.82 75.1089 56.766C75.0229 56.712 74.9469 56.655 74.8809 56.595L75.0459 56.367C75.0819 56.315 75.1289 56.289 75.1869 56.289C75.2269 56.289 75.2719 56.305 75.3219 56.337C75.3719 56.367 75.4329 56.401 75.5049 56.439C75.5769 56.477 75.6609 56.512 75.7569 56.544C75.8549 56.574 75.9709 56.589 76.1049 56.589C76.2549 56.589 76.3899 56.565 76.5099 56.517C76.6299 56.469 76.7329 56.401 76.8189 56.313C76.9049 56.223 76.9709 56.116 77.0169 55.992C77.0629 55.868 77.0859 55.729 77.0859 55.575C77.0859 55.441 77.0659 55.32 77.0259 55.212C76.9879 55.104 76.9289 55.012 76.8489 54.936C76.7709 54.86 76.6729 54.801 76.5549 54.759C76.4369 54.717 76.2989 54.696 76.1409 54.696C76.0329 54.696 75.9199 54.705 75.8019 54.723C75.6859 54.741 75.5669 54.77 75.4449 54.81L75.1089 54.711L75.4539 52.701H77.4909V52.935C77.4909 53.011 77.4669 53.074 77.4189 53.124C77.3729 53.172 77.2929 53.196 77.1789 53.196H75.8289L75.6309 54.324ZM81.0794 56.592V57H78.7754V56.592H79.6964V53.661C79.6964 53.573 79.6994 53.484 79.7054 53.394L78.9404 54.051C78.9144 54.073 78.8884 54.087 78.8624 54.093C78.8364 54.097 78.8124 54.097 78.7904 54.093C78.7684 54.089 78.7474 54.081 78.7274 54.069C78.7094 54.057 78.6954 54.044 78.6854 54.03L78.5174 53.799L79.7984 52.692H80.2334V56.592H81.0794ZM83.2399 56.604C83.3839 56.604 83.5139 56.581 83.6299 56.535C83.7479 56.489 83.8479 56.425 83.9299 56.343C84.0139 56.261 84.0779 56.164 84.1219 56.052C84.1679 55.94 84.1909 55.818 84.1909 55.686C84.1909 55.546 84.1689 55.42 84.1249 55.308C84.0809 55.194 84.0179 55.098 83.9359 55.02C83.8559 54.94 83.7599 54.879 83.6479 54.837C83.5359 54.795 83.4129 54.774 83.2789 54.774C83.1349 54.774 83.0049 54.799 82.8889 54.849C82.7729 54.897 82.6739 54.963 82.5919 55.047C82.5119 55.129 82.4499 55.225 82.4059 55.335C82.3639 55.443 82.3429 55.556 82.3429 55.674C82.3429 55.812 82.3629 55.938 82.4029 56.052C82.4429 56.166 82.5009 56.264 82.5769 56.346C82.6549 56.428 82.7489 56.492 82.8589 56.538C82.9709 56.582 83.0979 56.604 83.2399 56.604ZM82.9279 54.312C82.8899 54.36 82.8529 54.407 82.8169 54.453C82.7829 54.497 82.7499 54.541 82.7179 54.585C82.8199 54.515 82.9319 54.461 83.0539 54.423C83.1759 54.385 83.3089 54.366 83.4529 54.366C83.6269 54.366 83.7909 54.395 83.9449 54.453C84.0989 54.509 84.2329 54.592 84.3469 54.702C84.4629 54.81 84.5549 54.944 84.6229 55.104C84.6909 55.262 84.7249 55.443 84.7249 55.647C84.7249 55.845 84.6889 56.029 84.6169 56.199C84.5449 56.369 84.4439 56.517 84.3139 56.643C84.1859 56.769 84.0309 56.868 83.8489 56.94C83.6689 57.012 83.4699 57.048 83.2519 57.048C83.0359 57.048 82.8399 57.014 82.6639 56.946C82.4879 56.876 82.3379 56.778 82.2139 56.652C82.0919 56.524 81.9969 56.37 81.9289 56.19C81.8629 56.008 81.8299 55.805 81.8299 55.581C81.8299 55.393 81.8709 55.193 81.9529 54.981C82.0369 54.767 82.1699 54.539 82.3519 54.297L83.4439 52.83C83.4719 52.794 83.5099 52.764 83.5579 52.74C83.6079 52.714 83.6649 52.701 83.7289 52.701H84.2029L82.9279 54.312ZM87.9473 56.493C88.0053 56.493 88.0513 56.51 88.0853 56.544C88.1193 56.578 88.1363 56.622 88.1363 56.676V57H85.2683V56.817C85.2683 56.779 85.2763 56.74 85.2923 56.7C85.3083 56.66 85.3333 56.623 85.3673 56.589L86.7443 55.206C86.8583 55.09 86.9623 54.979 87.0563 54.873C87.1503 54.765 87.2303 54.657 87.2963 54.549C87.3623 54.441 87.4133 54.332 87.4493 54.222C87.4853 54.11 87.5033 53.991 87.5033 53.865C87.5033 53.739 87.4833 53.629 87.4433 53.535C87.4033 53.439 87.3483 53.36 87.2783 53.298C87.2103 53.236 87.1293 53.19 87.0353 53.16C86.9413 53.128 86.8403 53.112 86.7323 53.112C86.6223 53.112 86.5213 53.128 86.4293 53.16C86.3373 53.192 86.2553 53.237 86.1833 53.295C86.1133 53.351 86.0543 53.418 86.0063 53.496C85.9583 53.574 85.9243 53.66 85.9043 53.754C85.8803 53.824 85.8473 53.871 85.8053 53.895C85.7653 53.917 85.7083 53.923 85.6343 53.913L85.3553 53.865C85.3833 53.669 85.4373 53.496 85.5173 53.346C85.5993 53.194 85.7013 53.067 85.8233 52.965C85.9473 52.863 86.0883 52.786 86.2463 52.734C86.4043 52.68 86.5753 52.653 86.7593 52.653C86.9413 52.653 87.1113 52.68 87.2693 52.734C87.4273 52.788 87.5643 52.867 87.6803 52.971C87.7963 53.073 87.8873 53.198 87.9533 53.346C88.0193 53.494 88.0523 53.662 88.0523 53.85C88.0523 54.01 88.0283 54.159 87.9803 54.297C87.9323 54.433 87.8673 54.563 87.7853 54.687C87.7033 54.811 87.6083 54.932 87.5003 55.05C87.3943 55.168 87.2813 55.287 87.1613 55.407L86.0273 56.565C86.1073 56.543 86.1883 56.526 86.2703 56.514C86.3523 56.5 86.4313 56.493 86.5073 56.493H87.9473ZM91.451 54.882C91.239 54.994 91.079 55.13 90.971 55.29C90.865 55.45 90.812 55.624 90.812 55.812C90.812 55.942 90.836 56.057 90.884 56.157C90.932 56.255 90.995 56.338 91.073 56.406C91.151 56.474 91.24 56.526 91.34 56.562C91.44 56.596 91.542 56.613 91.646 56.613C91.87 56.613 92.071 56.572 92.249 56.49C92.429 56.408 92.586 56.298 92.72 56.16L91.451 54.882ZM94.223 57H93.704C93.646 57 93.599 56.993 93.563 56.979C93.527 56.965 93.488 56.936 93.446 56.892L93.011 56.454C92.823 56.636 92.606 56.781 92.36 56.889C92.116 56.995 91.847 57.048 91.553 57.048C91.393 57.048 91.236 57.021 91.082 56.967C90.93 56.913 90.793 56.835 90.671 56.733C90.549 56.629 90.451 56.503 90.377 56.355C90.303 56.207 90.266 56.04 90.266 55.854C90.266 55.714 90.289 55.582 90.335 55.458C90.383 55.332 90.449 55.216 90.533 55.11C90.617 55.004 90.716 54.909 90.83 54.825C90.944 54.741 91.069 54.669 91.205 54.609C91.083 54.453 90.993 54.303 90.935 54.159C90.877 54.013 90.848 53.862 90.848 53.706C90.848 53.56 90.874 53.423 90.926 53.295C90.98 53.167 91.057 53.056 91.157 52.962C91.257 52.866 91.378 52.791 91.52 52.737C91.664 52.681 91.825 52.653 92.003 52.653C92.161 52.653 92.305 52.679 92.435 52.731C92.565 52.781 92.677 52.848 92.771 52.932C92.865 53.016 92.939 53.114 92.993 53.226C93.049 53.336 93.081 53.451 93.089 53.571L92.756 53.637C92.69 53.653 92.641 53.622 92.609 53.544C92.595 53.492 92.572 53.438 92.54 53.382C92.51 53.326 92.47 53.275 92.42 53.229C92.372 53.183 92.313 53.145 92.243 53.115C92.175 53.085 92.095 53.07 92.003 53.07C91.903 53.07 91.812 53.086 91.73 53.118C91.65 53.15 91.581 53.195 91.523 53.253C91.467 53.309 91.424 53.376 91.394 53.454C91.364 53.53 91.349 53.613 91.349 53.703C91.349 53.773 91.357 53.84 91.373 53.904C91.389 53.968 91.414 54.033 91.448 54.099C91.484 54.165 91.529 54.232 91.583 54.3C91.637 54.368 91.702 54.44 91.778 54.516L93.014 55.773C93.09 55.637 93.151 55.496 93.197 55.35C93.243 55.202 93.273 55.055 93.287 54.909C93.291 54.871 93.303 54.841 93.323 54.819C93.343 54.797 93.371 54.786 93.407 54.786H93.734C93.732 55.016 93.696 55.242 93.626 55.464C93.556 55.684 93.455 55.891 93.323 56.085L94.223 57ZM99.1086 54.852C99.1086 55.228 99.0676 55.554 98.9856 55.83C98.9056 56.104 98.7956 56.331 98.6556 56.511C98.5156 56.691 98.3496 56.825 98.1576 56.913C97.9676 57.001 97.7636 57.045 97.5456 57.045C97.3256 57.045 97.1206 57.001 96.9306 56.913C96.7426 56.825 96.5786 56.691 96.4386 56.511C96.2986 56.331 96.1886 56.104 96.1086 55.83C96.0286 55.554 95.9886 55.228 95.9886 54.852C95.9886 54.476 96.0286 54.15 96.1086 53.874C96.1886 53.598 96.2986 53.37 96.4386 53.19C96.5786 53.008 96.7426 52.873 96.9306 52.785C97.1206 52.697 97.3256 52.653 97.5456 52.653C97.7636 52.653 97.9676 52.697 98.1576 52.785C98.3496 52.873 98.5156 53.008 98.6556 53.19C98.7956 53.37 98.9056 53.598 98.9856 53.874C99.0676 54.15 99.1086 54.476 99.1086 54.852ZM98.5536 54.852C98.5536 54.524 98.5256 54.249 98.4696 54.027C98.4156 53.803 98.3416 53.623 98.2476 53.487C98.1556 53.351 98.0486 53.254 97.9266 53.196C97.8046 53.136 97.6776 53.106 97.5456 53.106C97.4136 53.106 97.2866 53.136 97.1646 53.196C97.0426 53.254 96.9356 53.351 96.8436 53.487C96.7516 53.623 96.6776 53.803 96.6216 54.027C96.5676 54.249 96.5406 54.524 96.5406 54.852C96.5406 55.18 96.5676 55.455 96.6216 55.677C96.6776 55.899 96.7516 56.078 96.8436 56.214C96.9356 56.35 97.0426 56.448 97.1646 56.508C97.2866 56.566 97.4136 56.595 97.5456 56.595C97.6776 56.595 97.8046 56.566 97.9266 56.508C98.0486 56.448 98.1556 56.35 98.2476 56.214C98.3416 56.078 98.4156 55.899 98.4696 55.677C98.5256 55.455 98.5536 55.18 98.5536 54.852ZM102.25 56.493C102.308 56.493 102.354 56.51 102.388 56.544C102.422 56.578 102.439 56.622 102.439 56.676V57H99.5711V56.817C99.5711 56.779 99.5791 56.74 99.5951 56.7C99.6111 56.66 99.6361 56.623 99.6701 56.589L101.047 55.206C101.161 55.09 101.265 54.979 101.359 54.873C101.453 54.765 101.533 54.657 101.599 54.549C101.665 54.441 101.716 54.332 101.752 54.222C101.788 54.11 101.806 53.991 101.806 53.865C101.806 53.739 101.786 53.629 101.746 53.535C101.706 53.439 101.651 53.36 101.581 53.298C101.513 53.236 101.432 53.19 101.338 53.16C101.244 53.128 101.143 53.112 101.035 53.112C100.925 53.112 100.824 53.128 100.732 53.16C100.64 53.192 100.558 53.237 100.486 53.295C100.416 53.351 100.357 53.418 100.309 53.496C100.261 53.574 100.227 53.66 100.207 53.754C100.183 53.824 100.15 53.871 100.108 53.895C100.068 53.917 100.011 53.923 99.9371 53.913L99.6581 53.865C99.6861 53.669 99.7401 53.496 99.8201 53.346C99.9021 53.194 100.004 53.067 100.126 52.965C100.25 52.863 100.391 52.786 100.549 52.734C100.707 52.68 100.878 52.653 101.062 52.653C101.244 52.653 101.414 52.68 101.572 52.734C101.73 52.788 101.867 52.867 101.983 52.971C102.099 53.073 102.19 53.198 102.256 53.346C102.322 53.494 102.355 53.662 102.355 53.85C102.355 54.01 102.331 54.159 102.283 54.297C102.235 54.433 102.17 54.563 102.088 54.687C102.006 54.811 101.911 54.932 101.803 55.05C101.697 55.168 101.584 55.287 101.464 55.407L100.33 56.565C100.41 56.543 100.491 56.526 100.573 56.514C100.655 56.5 100.734 56.493 100.81 56.493H102.25ZM105.824 56.592V57H103.52V56.592H104.441V53.661C104.441 53.573 104.444 53.484 104.45 53.394L103.685 54.051C103.659 54.073 103.633 54.087 103.607 54.093C103.581 54.097 103.557 54.097 103.535 54.093C103.513 54.089 103.492 54.081 103.472 54.069C103.454 54.057 103.44 54.044 103.43 54.03L103.262 53.799L104.543 52.692H104.978V56.592H105.824ZM106.625 54.975H108.107V55.428H106.625V54.975ZM110.217 56.622C110.357 56.622 110.482 56.603 110.592 56.565C110.704 56.525 110.798 56.47 110.874 56.4C110.952 56.328 111.011 56.243 111.051 56.145C111.093 56.045 111.114 55.935 111.114 55.815C111.114 55.667 111.089 55.541 111.039 55.437C110.991 55.331 110.925 55.245 110.841 55.179C110.759 55.113 110.664 55.065 110.556 55.035C110.448 55.003 110.335 54.987 110.217 54.987C110.099 54.987 109.986 55.003 109.878 55.035C109.77 55.065 109.674 55.113 109.59 55.179C109.508 55.245 109.442 55.331 109.392 55.437C109.344 55.541 109.32 55.667 109.32 55.815C109.32 55.935 109.34 56.045 109.38 56.145C109.422 56.243 109.481 56.328 109.557 56.4C109.635 56.47 109.729 56.525 109.839 56.565C109.951 56.603 110.077 56.622 110.217 56.622ZM110.217 53.067C110.089 53.067 109.976 53.086 109.878 53.124C109.782 53.162 109.701 53.214 109.635 53.28C109.571 53.346 109.522 53.423 109.488 53.511C109.456 53.599 109.44 53.693 109.44 53.793C109.44 53.891 109.454 53.986 109.482 54.078C109.51 54.17 109.555 54.252 109.617 54.324C109.679 54.394 109.759 54.451 109.857 54.495C109.957 54.537 110.077 54.558 110.217 54.558C110.357 54.558 110.476 54.537 110.574 54.495C110.674 54.451 110.755 54.394 110.817 54.324C110.879 54.252 110.924 54.17 110.952 54.078C110.98 53.986 110.994 53.891 110.994 53.793C110.994 53.693 110.977 53.599 110.943 53.511C110.911 53.423 110.862 53.346 110.796 53.28C110.732 53.214 110.651 53.162 110.553 53.124C110.457 53.086 110.345 53.067 110.217 53.067ZM110.832 54.759C111.1 54.835 111.306 54.962 111.45 55.14C111.594 55.318 111.666 55.546 111.666 55.824C111.666 56.012 111.63 56.182 111.558 56.334C111.488 56.484 111.389 56.612 111.261 56.718C111.135 56.824 110.983 56.906 110.805 56.964C110.627 57.02 110.431 57.048 110.217 57.048C110.003 57.048 109.807 57.02 109.629 56.964C109.451 56.906 109.298 56.824 109.17 56.718C109.042 56.612 108.943 56.484 108.873 56.334C108.803 56.182 108.768 56.012 108.768 55.824C108.768 55.546 108.84 55.318 108.984 55.14C109.128 54.962 109.334 54.835 109.602 54.759C109.376 54.675 109.205 54.55 109.089 54.384C108.975 54.216 108.918 54.016 108.918 53.784C108.918 53.626 108.949 53.478 109.011 53.34C109.073 53.202 109.161 53.082 109.275 52.98C109.389 52.878 109.525 52.798 109.683 52.74C109.843 52.682 110.021 52.653 110.217 52.653C110.411 52.653 110.588 52.682 110.748 52.74C110.908 52.798 111.045 52.878 111.159 52.98C111.273 53.082 111.361 53.202 111.423 53.34C111.485 53.478 111.516 53.626 111.516 53.784C111.516 54.016 111.458 54.216 111.342 54.384C111.228 54.55 111.058 54.675 110.832 54.759ZM113.043 54.324C113.267 54.276 113.473 54.252 113.661 54.252C113.885 54.252 114.083 54.285 114.255 54.351C114.427 54.417 114.57 54.508 114.684 54.624C114.8 54.74 114.887 54.877 114.945 55.035C115.005 55.193 115.035 55.365 115.035 55.551C115.035 55.779 114.995 55.985 114.915 56.169C114.837 56.353 114.728 56.511 114.588 56.643C114.45 56.773 114.287 56.873 114.099 56.943C113.911 57.013 113.708 57.048 113.49 57.048C113.364 57.048 113.243 57.035 113.127 57.009C113.011 56.985 112.902 56.952 112.8 56.91C112.7 56.868 112.607 56.82 112.521 56.766C112.435 56.712 112.359 56.655 112.293 56.595L112.458 56.367C112.494 56.315 112.541 56.289 112.599 56.289C112.639 56.289 112.684 56.305 112.734 56.337C112.784 56.367 112.845 56.401 112.917 56.439C112.989 56.477 113.073 56.512 113.169 56.544C113.267 56.574 113.383 56.589 113.517 56.589C113.667 56.589 113.802 56.565 113.922 56.517C114.042 56.469 114.145 56.401 114.231 56.313C114.317 56.223 114.383 56.116 114.429 55.992C114.475 55.868 114.498 55.729 114.498 55.575C114.498 55.441 114.478 55.32 114.438 55.212C114.4 55.104 114.341 55.012 114.261 54.936C114.183 54.86 114.085 54.801 113.967 54.759C113.849 54.717 113.711 54.696 113.553 54.696C113.445 54.696 113.332 54.705 113.214 54.723C113.098 54.741 112.979 54.77 112.857 54.81L112.521 54.711L112.866 52.701H114.903V52.935C114.903 53.011 114.879 53.074 114.831 53.124C114.785 53.172 114.705 53.196 114.591 53.196H113.241L113.043 54.324ZM117.178 56.622C117.318 56.622 117.443 56.603 117.553 56.565C117.665 56.525 117.759 56.47 117.835 56.4C117.913 56.328 117.972 56.243 118.012 56.145C118.054 56.045 118.075 55.935 118.075 55.815C118.075 55.667 118.05 55.541 118 55.437C117.952 55.331 117.886 55.245 117.802 55.179C117.72 55.113 117.625 55.065 117.517 55.035C117.409 55.003 117.296 54.987 117.178 54.987C117.06 54.987 116.947 55.003 116.839 55.035C116.731 55.065 116.635 55.113 116.551 55.179C116.469 55.245 116.403 55.331 116.353 55.437C116.305 55.541 116.281 55.667 116.281 55.815C116.281 55.935 116.301 56.045 116.341 56.145C116.383 56.243 116.442 56.328 116.518 56.4C116.596 56.47 116.69 56.525 116.8 56.565C116.912 56.603 117.038 56.622 117.178 56.622ZM117.178 53.067C117.05 53.067 116.937 53.086 116.839 53.124C116.743 53.162 116.662 53.214 116.596 53.28C116.532 53.346 116.483 53.423 116.449 53.511C116.417 53.599 116.401 53.693 116.401 53.793C116.401 53.891 116.415 53.986 116.443 54.078C116.471 54.17 116.516 54.252 116.578 54.324C116.64 54.394 116.72 54.451 116.818 54.495C116.918 54.537 117.038 54.558 117.178 54.558C117.318 54.558 117.437 54.537 117.535 54.495C117.635 54.451 117.716 54.394 117.778 54.324C117.84 54.252 117.885 54.17 117.913 54.078C117.941 53.986 117.955 53.891 117.955 53.793C117.955 53.693 117.938 53.599 117.904 53.511C117.872 53.423 117.823 53.346 117.757 53.28C117.693 53.214 117.612 53.162 117.514 53.124C117.418 53.086 117.306 53.067 117.178 53.067ZM117.793 54.759C118.061 54.835 118.267 54.962 118.411 55.14C118.555 55.318 118.627 55.546 118.627 55.824C118.627 56.012 118.591 56.182 118.519 56.334C118.449 56.484 118.35 56.612 118.222 56.718C118.096 56.824 117.944 56.906 117.766 56.964C117.588 57.02 117.392 57.048 117.178 57.048C116.964 57.048 116.768 57.02 116.59 56.964C116.412 56.906 116.259 56.824 116.131 56.718C116.003 56.612 115.904 56.484 115.833 56.334C115.764 56.182 115.729 56.012 115.729 55.824C115.729 55.546 115.801 55.318 115.945 55.14C116.089 54.962 116.295 54.835 116.563 54.759C116.337 54.675 116.166 54.55 116.05 54.384C115.936 54.216 115.878 54.016 115.878 53.784C115.878 53.626 115.91 53.478 115.972 53.34C116.034 53.202 116.122 53.082 116.236 52.98C116.35 52.878 116.486 52.798 116.644 52.74C116.804 52.682 116.982 52.653 117.178 52.653C117.372 52.653 117.549 52.682 117.709 52.74C117.869 52.798 118.006 52.878 118.12 52.98C118.234 53.082 118.322 53.202 118.384 53.34C118.446 53.478 118.477 53.626 118.477 53.784C118.477 54.016 118.419 54.216 118.303 54.384C118.189 54.55 118.019 54.675 117.793 54.759ZM121.972 56.592V57H119.668V56.592H120.589V53.661C120.589 53.573 120.592 53.484 120.598 53.394L119.833 54.051C119.807 54.073 119.781 54.087 119.755 54.093C119.729 54.097 119.705 54.097 119.683 54.093C119.661 54.089 119.64 54.081 119.62 54.069C119.602 54.057 119.588 54.044 119.578 54.03L119.41 53.799L120.691 52.692H121.126V56.592H121.972ZM125.452 56.592V57H123.148V56.592H124.069V53.661C124.069 53.573 124.072 53.484 124.078 53.394L123.313 54.051C123.287 54.073 123.261 54.087 123.235 54.093C123.209 54.097 123.185 54.097 123.163 54.093C123.141 54.089 123.12 54.081 123.1 54.069C123.082 54.057 123.068 54.044 123.058 54.03L122.89 53.799L124.171 52.692H124.606V56.592H125.452ZM127.613 56.604C127.757 56.604 127.887 56.581 128.003 56.535C128.121 56.489 128.221 56.425 128.303 56.343C128.387 56.261 128.451 56.164 128.495 56.052C128.541 55.94 128.564 55.818 128.564 55.686C128.564 55.546 128.542 55.42 128.498 55.308C128.454 55.194 128.391 55.098 128.309 55.02C128.229 54.94 128.133 54.879 128.021 54.837C127.909 54.795 127.786 54.774 127.652 54.774C127.508 54.774 127.378 54.799 127.262 54.849C127.146 54.897 127.047 54.963 126.965 55.047C126.885 55.129 126.823 55.225 126.779 55.335C126.737 55.443 126.716 55.556 126.716 55.674C126.716 55.812 126.736 55.938 126.776 56.052C126.816 56.166 126.874 56.264 126.95 56.346C127.028 56.428 127.122 56.492 127.232 56.538C127.344 56.582 127.471 56.604 127.613 56.604ZM127.301 54.312C127.263 54.36 127.226 54.407 127.19 54.453C127.156 54.497 127.123 54.541 127.091 54.585C127.193 54.515 127.305 54.461 127.427 54.423C127.549 54.385 127.682 54.366 127.826 54.366C128 54.366 128.164 54.395 128.318 54.453C128.472 54.509 128.606 54.592 128.72 54.702C128.836 54.81 128.928 54.944 128.996 55.104C129.064 55.262 129.098 55.443 129.098 55.647C129.098 55.845 129.062 56.029 128.99 56.199C128.918 56.369 128.817 56.517 128.687 56.643C128.559 56.769 128.404 56.868 128.222 56.94C128.042 57.012 127.843 57.048 127.625 57.048C127.409 57.048 127.213 57.014 127.037 56.946C126.861 56.876 126.711 56.778 126.587 56.652C126.465 56.524 126.37 56.37 126.302 56.19C126.236 56.008 126.203 55.805 126.203 55.581C126.203 55.393 126.244 55.193 126.326 54.981C126.41 54.767 126.543 54.539 126.725 54.297L127.817 52.83C127.845 52.794 127.883 52.764 127.931 52.74C127.981 52.714 128.038 52.701 128.102 52.701H128.576L127.301 54.312ZM132.32 56.493C132.378 56.493 132.424 56.51 132.458 56.544C132.492 56.578 132.509 56.622 132.509 56.676V57H129.641V56.817C129.641 56.779 129.649 56.74 129.665 56.7C129.681 56.66 129.706 56.623 129.74 56.589L131.117 55.206C131.231 55.09 131.335 54.979 131.429 54.873C131.523 54.765 131.603 54.657 131.669 54.549C131.735 54.441 131.786 54.332 131.822 54.222C131.858 54.11 131.876 53.991 131.876 53.865C131.876 53.739 131.856 53.629 131.816 53.535C131.776 53.439 131.721 53.36 131.651 53.298C131.583 53.236 131.502 53.19 131.408 53.16C131.314 53.128 131.213 53.112 131.105 53.112C130.995 53.112 130.894 53.128 130.802 53.16C130.71 53.192 130.628 53.237 130.556 53.295C130.486 53.351 130.427 53.418 130.379 53.496C130.331 53.574 130.297 53.66 130.277 53.754C130.253 53.824 130.22 53.871 130.178 53.895C130.138 53.917 130.081 53.923 130.007 53.913L129.728 53.865C129.756 53.669 129.81 53.496 129.89 53.346C129.972 53.194 130.074 53.067 130.196 52.965C130.32 52.863 130.461 52.786 130.619 52.734C130.777 52.68 130.948 52.653 131.132 52.653C131.314 52.653 131.484 52.68 131.642 52.734C131.8 52.788 131.937 52.867 132.053 52.971C132.169 53.073 132.26 53.198 132.326 53.346C132.392 53.494 132.425 53.662 132.425 53.85C132.425 54.01 132.401 54.159 132.353 54.297C132.305 54.433 132.24 54.563 132.158 54.687C132.076 54.811 131.981 54.932 131.873 55.05C131.767 55.168 131.654 55.287 131.534 55.407L130.4 56.565C130.48 56.543 130.561 56.526 130.643 56.514C130.725 56.5 130.804 56.493 130.88 56.493H132.32Z" fill="white"/>
<circle cx="12.5" cy="43.5" r="12" fill="#D9D9D9" stroke="white"/>
<g clip-path="url(#clip0_6_659)">
<path d="M15.5382 43.5002C16.1989 43.5001 16.8416 43.2846 17.3688 42.8864C17.896 42.4882 18.2791 41.929 18.4599 41.2935C18.6407 40.6581 18.6095 39.981 18.3709 39.3648C18.1323 38.7487 17.6993 38.2272 17.1377 37.8792C16.576 37.5313 15.9162 37.3759 15.2583 37.4367C14.6004 37.4975 13.9803 37.771 13.4918 38.2159C13.0034 38.6608 12.6733 39.2529 12.5515 39.9023C12.4298 40.5516 12.5231 41.223 12.8172 41.8146C12.8728 41.922 12.8873 42.0461 12.8579 42.1634L12.6769 42.8397C12.6589 42.9067 12.6589 42.9772 12.6769 43.0441C12.6948 43.1111 12.7301 43.1721 12.7791 43.2212C12.8281 43.2702 12.8892 43.3054 12.9561 43.3234C13.0231 43.3413 13.0936 43.3413 13.1605 43.3234L13.8368 43.1423C13.9542 43.1129 14.0782 43.1274 14.1856 43.183C14.6058 43.3922 15.0689 43.5008 15.5382 43.5002Z" stroke="#088E41" stroke-width="1.5"/>
<path d="M6.88063 41.0241C6.8774 40.9643 6.86243 40.9058 6.83657 40.8518C6.81072 40.7978 6.77448 40.7495 6.72993 40.7095C6.68538 40.6695 6.6334 40.6387 6.57694 40.6188C6.52049 40.5989 6.46067 40.5903 6.4009 40.5936C6.34114 40.5968 6.28259 40.6118 6.22861 40.6376C6.17463 40.6635 6.12627 40.6997 6.08629 40.7443C6.04632 40.7888 6.0155 40.8408 5.99562 40.8973C5.97573 40.9537 5.96716 41.0135 5.97039 41.0733L6.88063 41.0241ZM7.46761 38.695C7.38781 38.7832 7.34565 38.8991 7.35013 39.018C7.35461 39.1368 7.40538 39.2492 7.49159 39.3311C7.57781 39.4131 7.69264 39.4581 7.81157 39.4565C7.9305 39.4549 8.0441 39.4069 8.12812 39.3227L7.46761 38.695ZM11.0806 48.8547C11.1313 48.8874 11.188 48.9097 11.2473 48.9203C11.3067 48.9309 11.3675 48.9296 11.4264 48.9165C11.4852 48.9035 11.5409 48.8788 11.5902 48.8441C11.6394 48.8093 11.6813 48.7652 11.7134 48.7141C11.7455 48.6631 11.7671 48.6062 11.777 48.5467C11.7869 48.4872 11.785 48.4264 11.7712 48.3677C11.7575 48.309 11.7322 48.2536 11.6969 48.2048C11.6616 48.1559 11.6169 48.1145 11.5655 48.083L11.0806 48.8547ZM13.784 49.0042C13.6657 48.9795 13.5423 49.0028 13.4411 49.069C13.3399 49.1352 13.2692 49.2389 13.2444 49.3572C13.2197 49.4756 13.243 49.599 13.3092 49.7002C13.3754 49.8013 13.4791 49.8721 13.5975 49.8968L13.784 49.0042ZM14.1073 46.2613L14.3838 45.9697L13.7226 45.342L13.4462 45.6336L14.1073 46.2613ZM15.2946 45.8469L16.4552 46.5153L16.9103 45.7254L15.7491 45.057L15.2946 45.8469ZM16.6794 47.9007L15.816 48.8092L16.4771 49.4375L17.3399 48.5284L16.6794 47.9007ZM9.68003 46.5135C7.32482 44.0337 6.92985 41.9416 6.88063 41.0241L5.97039 41.0733C6.03116 42.1974 6.50754 44.4967 9.01952 47.1412L9.68003 46.5135ZM10.5161 42.4806L10.6899 42.2971L10.0294 41.6694L9.85503 41.8529L10.5161 42.4806ZM10.8272 40.0124L10.061 38.9289L9.31666 39.4552L10.0823 40.5386L10.8272 40.0124ZM10.185 42.1664C10.0756 42.0611 9.96522 41.9567 9.85381 41.8535L9.8526 41.8547L9.85077 41.8566C9.83999 41.8677 9.82984 41.8795 9.82039 41.8918C9.76083 41.9706 9.71369 42.0581 9.68063 42.1513C9.62109 42.3184 9.58949 42.5395 9.62959 42.8154C9.70859 43.3574 10.0641 44.086 10.9919 45.0637L11.653 44.4354C10.7853 43.5221 10.5714 42.96 10.5313 42.6829C10.5119 42.5493 10.5313 42.4794 10.5392 42.4569L10.5441 42.4454C10.5377 42.4557 10.5302 42.4653 10.5216 42.4739L10.5186 42.477C10.518 42.4776 10.5174 42.4782 10.5167 42.4788L10.5161 42.4794C10.5161 42.4794 10.5155 42.4806 10.185 42.1664ZM10.9919 45.0631C11.9174 46.0377 12.6161 46.4205 13.149 46.5074C13.4231 46.5518 13.6449 46.5159 13.8126 46.4497C13.9057 46.4133 13.9923 46.362 14.069 46.2978L14.0903 46.2771L14.0988 46.2686L14.103 46.265L14.1049 46.2632L14.1055 46.2619C14.1055 46.2619 14.1067 46.2613 13.7761 45.9472C13.4456 45.6336 13.4462 45.633 13.4462 45.6324L13.4474 45.6318L13.4486 45.63L13.4522 45.627C13.4614 45.6181 13.471 45.6096 13.4808 45.6014C13.4863 45.5978 13.4857 45.599 13.4778 45.602C13.4656 45.6069 13.4109 45.6263 13.2955 45.6075C13.0512 45.5674 12.5238 45.3523 11.653 44.4354L10.9919 45.0631ZM10.061 38.9289C9.44487 38.0576 8.21258 37.9099 7.46761 38.695L8.12812 39.3227C8.44591 38.9885 9.00555 39.0146 9.31666 39.4552L10.061 38.9289ZM15.816 48.8092C15.6464 48.9878 15.4696 49.0838 15.297 49.1008L15.3864 50.0074C15.8403 49.9631 16.2079 49.7212 16.4771 49.4375L15.816 48.8092ZM10.6899 42.2971C11.2787 41.6773 11.3194 40.7093 10.8272 40.0124L10.0829 40.5386C10.3393 40.9013 10.2998 41.3844 10.0294 41.6688L10.6899 42.2971ZM16.4552 46.5153C16.9541 46.8027 17.0519 47.5088 16.6794 47.9007L17.3399 48.5284C18.1329 47.6935 17.902 46.2966 16.9103 45.7254L16.4552 46.5153ZM14.3838 45.9697C14.6177 45.723 14.9829 45.6677 15.2946 45.8469L15.7491 45.057C15.0813 44.673 14.2543 44.7829 13.7226 45.342L14.3838 45.9697ZM11.5655 48.083C10.9676 47.7075 10.332 47.1995 9.68003 46.5135L9.01952 47.1412C9.72074 47.8795 10.4153 48.4367 11.0806 48.8547L11.5655 48.083ZM15.2964 49.1008C14.7903 49.1453 14.2804 49.1127 13.784 49.0042L13.5975 49.8968C14.1847 50.024 14.7879 50.0613 15.3864 50.0074L15.2964 49.1008Z" fill="#088E41"/>
</g>
<defs>
<clipPath id="clip0_6_659">
<rect width="14.5833" height="14.5833" fill="white" transform="translate(5.20837 36.2085)"/>
</clipPath>
</defs>
</svg>
