<svg width="284" height="24" viewBox="0 0 284 24" fill="none" xmlns="http://www.w3.org/2000/svg">
<path fill-rule="evenodd" clip-rule="evenodd" d="M280.104 6.96979C280.644 7.53063 280.82 8.80424 280.82 8.80424C280.82 8.80424 281 10.3002 281 11.7956V13.198C281 14.694 280.82 16.1894 280.82 16.1894C280.82 16.1894 280.644 17.463 280.104 18.0239C279.488 18.6873 278.804 18.7559 278.417 18.7946C278.375 18.7989 278.336 18.8028 278.301 18.8071C275.782 18.9942 272 19 272 19C272 19 267.32 18.9561 265.88 18.814C265.812 18.8009 265.729 18.7907 265.635 18.7792C265.179 18.723 264.463 18.6348 263.895 18.0239C263.356 17.463 263.18 16.1894 263.18 16.1894C263.18 16.1894 263 14.694 263 13.198V11.7956C263 10.3002 263.18 8.80424 263.18 8.80424C263.18 8.80424 263.356 7.53063 263.895 6.96979C264.513 6.30538 265.198 6.23757 265.584 6.19928C265.626 6.19513 265.664 6.19132 265.699 6.18714C268.218 6 271.996 6 271.996 6H272.004C272.004 6 275.782 6 278.301 6.18714C278.336 6.19133 278.374 6.19514 278.416 6.1993C278.802 6.2376 279.487 6.30549 280.104 6.96979ZM270.141 9.70413L270.141 14.8973L275.004 12.3097L270.141 9.70413Z" fill="white"/>
<path fill-rule="evenodd" clip-rule="evenodd" d="M224 3C221.556 3 221.249 3.01036 220.289 3.05416C219.331 3.09785 218.677 3.25001 218.105 3.47251C217.513 3.70247 217.011 4.01021 216.511 4.51055C216.01 5.01092 215.702 5.51283 215.473 6.10466C215.25 6.67712 215.098 7.33137 215.054 8.28931C215.01 9.24926 215 9.55575 215 12C215 14.4443 215.01 14.7507 215.054 15.7107C215.098 16.6686 215.25 17.3229 215.473 17.8953C215.702 18.4872 216.01 18.9891 216.511 19.4895C217.011 19.9898 217.513 20.2975 218.105 20.5275C218.677 20.75 219.331 20.9021 220.289 20.9458C221.249 20.9896 221.556 21 224 21C226.444 21 226.751 20.9896 227.711 20.9458C228.669 20.9021 229.323 20.75 229.895 20.5275C230.487 20.2975 230.989 19.9898 231.489 19.4895C231.99 18.9891 232.298 18.4872 232.528 17.8953C232.75 17.3229 232.902 16.6686 232.946 15.7107C232.99 14.7507 233 14.4443 233 12C233 9.55575 232.99 9.24926 232.946 8.28931C232.902 7.33137 232.75 6.67712 232.528 6.10466C232.298 5.51283 231.99 5.01092 231.489 4.51055C230.989 4.01021 230.487 3.70247 229.895 3.47251C229.323 3.25001 228.669 3.09785 227.711 3.05416C226.751 3.01036 226.444 3 224 3ZM224 4.62161C226.403 4.62161 226.688 4.63079 227.637 4.67409C228.514 4.71411 228.991 4.86072 229.308 4.98398C229.728 5.14724 230.028 5.34227 230.343 5.65722C230.658 5.97215 230.853 6.27195 231.016 6.69205C231.139 7.00919 231.286 7.48573 231.326 8.36322C231.369 9.31224 231.378 9.5969 231.378 12C231.378 14.4031 231.369 14.6878 231.326 15.6368C231.286 16.5143 231.139 16.9908 231.016 17.3079C230.853 17.728 230.658 18.0278 230.343 18.3428C230.028 18.6577 229.728 18.8527 229.308 19.016C228.991 19.1393 228.514 19.2859 227.637 19.3259C226.688 19.3692 226.403 19.3784 224 19.3784C221.597 19.3784 221.312 19.3692 220.363 19.3259C219.486 19.2859 219.009 19.1393 218.692 19.016C218.272 18.8527 217.972 18.6577 217.657 18.3428C217.342 18.0278 217.147 17.728 216.984 17.3079C216.861 16.9908 216.714 16.5143 216.674 15.6368C216.631 14.6878 216.622 14.4031 216.622 12C216.622 9.5969 216.631 9.31224 216.674 8.36322C216.714 7.48573 216.861 7.00919 216.984 6.69205C217.147 6.27195 217.342 5.97215 217.657 5.65722C217.972 5.34227 218.272 5.14724 218.692 4.98398C219.009 4.86072 219.486 4.71411 220.363 4.67409C221.312 4.63079 221.597 4.62161 224 4.62161ZM219.378 12C219.378 9.44754 221.448 7.37839 224 7.37839C226.552 7.37839 228.622 9.44754 228.622 12C228.622 14.5525 226.552 16.6216 224 16.6216C221.448 16.6216 219.378 14.5525 219.378 12ZM224 15C222.343 15 221 13.6569 221 12C221 10.3431 222.343 9 224 9C225.657 9 227 10.3431 227 12C227 13.6569 225.657 15 224 15ZM228.804 8.27579C229.401 8.27579 229.884 7.79228 229.884 7.1958C229.884 6.59933 229.401 6.11578 228.804 6.11578C228.208 6.11578 227.724 6.59933 227.724 7.1958C227.724 7.79228 228.208 8.27579 228.804 8.27579Z" fill="white"/>
<path d="M128.614 21H119.993C119.445 21 119 20.5551 119 20.0065V3.99345C119 3.44469 119.445 3 119.993 3H136.007C136.555 3 137 3.44469 137 3.99345V20.0065C137 20.5552 136.555 21 136.007 21H131.42V14.0294H133.759L134.11 11.3128H131.42V9.57849C131.42 8.79198 131.638 8.256 132.766 8.256L134.204 8.25537V5.82566C133.956 5.79255 133.102 5.71859 132.108 5.71859C130.034 5.71859 128.614 6.98457 128.614 9.30945V11.3128H126.269V14.0294H128.614V21Z" fill="white"/>
<path d="M185 6.77573C184.339 7.07692 183.627 7.28061 182.88 7.37161C183.642 6.90358 184.228 6.16143 184.503 5.27736C183.789 5.71073 183 6.026 182.157 6.19502C181.485 5.45937 180.525 5 179.462 5C177.424 5 175.77 6.69556 175.77 8.78657C175.77 9.08342 175.802 9.37161 175.865 9.64897C172.796 9.49079 170.076 7.98483 168.253 5.69122C167.935 6.25244 167.753 6.90358 167.753 7.59697C167.753 8.91008 168.405 10.0693 169.396 10.7486C168.792 10.7302 168.221 10.558 167.723 10.2763V10.3229C167.723 12.1582 168.996 13.6891 170.686 14.0358C170.377 14.1246 170.05 14.169 169.713 14.169C169.475 14.169 169.243 14.1463 169.018 14.1018C169.488 15.6056 170.851 16.701 172.468 16.7302C171.204 17.7465 169.611 18.3521 167.881 18.3521C167.583 18.3521 167.288 18.3348 167 18.3001C168.634 19.3727 170.576 20 172.661 20C179.454 20 183.168 14.2308 183.168 9.22644C183.168 9.06176 183.165 8.89707 183.158 8.73564C183.88 8.20152 184.507 7.53521 185 6.77573Z" fill="white"/>
<path opacity="0.7" d="M7.448 9.536C7.384 9.648 7.31467 9.73067 7.24 9.784C7.17067 9.832 7.08267 9.856 6.976 9.856C6.864 9.856 6.74133 9.816 6.608 9.736C6.48 9.65067 6.32533 9.55733 6.144 9.456C5.96267 9.35467 5.74933 9.264 5.504 9.184C5.264 9.09867 4.97867 9.056 4.648 9.056C4.34933 9.056 4.088 9.09333 3.864 9.168C3.64 9.23733 3.45067 9.336 3.296 9.464C3.14667 9.592 3.03467 9.74667 2.96 9.928C2.88533 10.104 2.848 10.2987 2.848 10.512C2.848 10.784 2.92267 11.0107 3.072 11.192C3.22667 11.3733 3.42933 11.528 3.68 11.656C3.93067 11.784 4.216 11.8987 4.536 12C4.856 12.1013 5.184 12.2107 5.52 12.328C5.856 12.44 6.184 12.5733 6.504 12.728C6.824 12.8773 7.10933 13.0693 7.36 13.304C7.61067 13.5333 7.81067 13.816 7.96 14.152C8.11467 14.488 8.192 14.896 8.192 15.376C8.192 15.8987 8.10133 16.3893 7.92 16.848C7.744 17.3013 7.48267 17.6987 7.136 18.04C6.79467 18.376 6.376 18.6427 5.88 18.84C5.384 19.032 4.816 19.128 4.176 19.128C3.808 19.128 3.44533 19.0907 3.088 19.016C2.73067 18.9467 2.38667 18.8453 2.056 18.712C1.73067 18.5787 1.424 18.4187 1.136 18.232C0.848 18.0453 0.592 17.8373 0.368 17.608L1 16.576C1.05333 16.5013 1.12267 16.44 1.208 16.392C1.29333 16.3387 1.384 16.312 1.48 16.312C1.61333 16.312 1.75733 16.368 1.912 16.48C2.06667 16.5867 2.25067 16.7067 2.464 16.84C2.67733 16.9733 2.92533 17.096 3.208 17.208C3.496 17.3147 3.84 17.368 4.24 17.368C4.85333 17.368 5.328 17.224 5.664 16.936C6 16.6427 6.168 16.224 6.168 15.68C6.168 15.376 6.09067 15.128 5.936 14.936C5.78667 14.744 5.58667 14.584 5.336 14.456C5.08533 14.3227 4.8 14.2107 4.48 14.12C4.16 14.0293 3.83467 13.9307 3.504 13.824C3.17333 13.7173 2.848 13.5893 2.528 13.44C2.208 13.2907 1.92267 13.096 1.672 12.856C1.42133 12.616 1.21867 12.3173 1.064 11.96C0.914667 11.5973 0.84 11.152 0.84 10.624C0.84 10.2027 0.922667 9.792 1.088 9.392C1.25867 8.992 1.504 8.63733 1.824 8.328C2.144 8.01867 2.53867 7.77067 3.008 7.584C3.47733 7.39733 4.016 7.304 4.624 7.304C5.30667 7.304 5.936 7.41067 6.512 7.624C7.088 7.83733 7.57867 8.136 7.984 8.52L7.448 9.536ZM13.358 10.664C13.966 10.664 14.518 10.7627 15.014 10.96C15.5153 11.1573 15.942 11.4373 16.294 11.8C16.6513 12.1627 16.926 12.6053 17.118 13.128C17.31 13.6507 17.406 14.2347 17.406 14.88C17.406 15.5307 17.31 16.1173 17.118 16.64C16.926 17.1627 16.6513 17.608 16.294 17.976C15.942 18.344 15.5153 18.6267 15.014 18.824C14.518 19.0213 13.966 19.12 13.358 19.12C12.7447 19.12 12.1873 19.0213 11.686 18.824C11.1847 18.6267 10.7553 18.344 10.398 17.976C10.046 17.608 9.77133 17.1627 9.574 16.64C9.382 16.1173 9.286 15.5307 9.286 14.88C9.286 14.2347 9.382 13.6507 9.574 13.128C9.77133 12.6053 10.046 12.1627 10.398 11.8C10.7553 11.4373 11.1847 11.1573 11.686 10.96C12.1873 10.7627 12.7447 10.664 13.358 10.664ZM13.358 17.6C14.0407 17.6 14.5447 17.3707 14.87 16.912C15.2007 16.4533 15.366 15.7813 15.366 14.896C15.366 14.0107 15.2007 13.336 14.87 12.872C14.5447 12.408 14.0407 12.176 13.358 12.176C12.6647 12.176 12.15 12.4107 11.814 12.88C11.4833 13.344 11.318 14.016 11.318 14.896C11.318 15.776 11.4833 16.448 11.814 16.912C12.15 17.3707 12.6647 17.6 13.358 17.6ZM24.7935 12.528C24.7348 12.6027 24.6762 12.6613 24.6175 12.704C24.5642 12.7467 24.4842 12.768 24.3775 12.768C24.2762 12.768 24.1775 12.7387 24.0815 12.68C23.9855 12.616 23.8708 12.5467 23.7375 12.472C23.6042 12.392 23.4442 12.3227 23.2575 12.264C23.0762 12.2 22.8495 12.168 22.5775 12.168C22.2308 12.168 21.9268 12.232 21.6655 12.36C21.4042 12.4827 21.1855 12.6613 21.0095 12.896C20.8388 13.1307 20.7108 13.416 20.6255 13.752C20.5402 14.0827 20.4975 14.4587 20.4975 14.88C20.4975 15.3173 20.5428 15.7067 20.6335 16.048C20.7295 16.3893 20.8655 16.6773 21.0415 16.912C21.2175 17.1413 21.4308 17.3173 21.6815 17.44C21.9322 17.5573 22.2148 17.616 22.5295 17.616C22.8442 17.616 23.0975 17.5787 23.2895 17.504C23.4868 17.424 23.6522 17.3387 23.7855 17.248C23.9188 17.152 24.0335 17.0667 24.1295 16.992C24.2308 16.912 24.3428 16.872 24.4655 16.872C24.6255 16.872 24.7455 16.9333 24.8255 17.056L25.3935 17.776C25.1748 18.032 24.9375 18.248 24.6815 18.424C24.4255 18.5947 24.1588 18.7333 23.8815 18.84C23.6095 18.9413 23.3268 19.0133 23.0335 19.056C22.7455 19.0987 22.4575 19.12 22.1695 19.12C21.6628 19.12 21.1855 19.0267 20.7375 18.84C20.2895 18.648 19.8975 18.3707 19.5615 18.008C19.2255 17.6453 18.9588 17.2027 18.7615 16.68C18.5695 16.152 18.4735 15.552 18.4735 14.88C18.4735 14.2773 18.5588 13.72 18.7295 13.208C18.9055 12.6907 19.1615 12.2453 19.4975 11.872C19.8335 11.4933 20.2495 11.1973 20.7455 10.984C21.2415 10.7707 21.8122 10.664 22.4575 10.664C23.0708 10.664 23.6068 10.7627 24.0655 10.96C24.5295 11.1573 24.9455 11.44 25.3135 11.808L24.7935 12.528ZM28.6803 10.792V19H26.6963V10.792H28.6803ZM28.9523 8.4C28.9523 8.57067 28.9176 8.73067 28.8483 8.88C28.7789 9.02933 28.6856 9.16 28.5683 9.272C28.4563 9.384 28.3229 9.47467 28.1683 9.544C28.0136 9.608 27.8483 9.64 27.6723 9.64C27.5016 9.64 27.3389 9.608 27.1843 9.544C27.0349 9.47467 26.9043 9.384 26.7923 9.272C26.6803 9.16 26.5896 9.02933 26.5203 8.88C26.4563 8.73067 26.4243 8.57067 26.4243 8.4C26.4243 8.224 26.4563 8.05867 26.5203 7.904C26.5896 7.74933 26.6803 7.616 26.7923 7.504C26.9043 7.392 27.0349 7.304 27.1843 7.24C27.3389 7.17067 27.5016 7.136 27.6723 7.136C27.8483 7.136 28.0136 7.17067 28.1683 7.24C28.3229 7.304 28.4563 7.392 28.5683 7.504C28.6856 7.616 28.7789 7.74933 28.8483 7.904C28.9176 8.05867 28.9523 8.224 28.9523 8.4ZM35.0308 15.496C34.4601 15.5227 33.9801 15.5733 33.5908 15.648C33.2014 15.7173 32.8894 15.808 32.6548 15.92C32.4201 16.032 32.2521 16.1627 32.1508 16.312C32.0494 16.4613 31.9988 16.624 31.9988 16.8C31.9988 17.1467 32.1001 17.3947 32.3028 17.544C32.5108 17.6933 32.7801 17.768 33.1108 17.768C33.5161 17.768 33.8654 17.696 34.1588 17.552C34.4574 17.4027 34.7481 17.1787 35.0308 16.88V15.496ZM30.5028 11.936C31.4468 11.072 32.5828 10.64 33.9108 10.64C34.3908 10.64 34.8201 10.72 35.1988 10.88C35.5774 11.0347 35.8974 11.2533 36.1588 11.536C36.4201 11.8133 36.6174 12.1467 36.7508 12.536C36.8894 12.9253 36.9588 13.352 36.9588 13.816V19H36.0628C35.8761 19 35.7321 18.9733 35.6308 18.92C35.5294 18.8613 35.4494 18.7467 35.3908 18.576L35.2148 17.984C35.0068 18.1707 34.8041 18.336 34.6068 18.48C34.4094 18.6187 34.2041 18.736 33.9908 18.832C33.7774 18.928 33.5481 19 33.3028 19.048C33.0628 19.1013 32.7961 19.128 32.5028 19.128C32.1561 19.128 31.8361 19.0827 31.5428 18.992C31.2494 18.896 30.9961 18.7547 30.7828 18.568C30.5694 18.3813 30.4041 18.1493 30.2868 17.872C30.1694 17.5947 30.1108 17.272 30.1108 16.904C30.1108 16.696 30.1454 16.4907 30.2148 16.288C30.2841 16.08 30.3961 15.8827 30.5508 15.696C30.7108 15.5093 30.9161 15.3333 31.1668 15.168C31.4174 15.0027 31.7241 14.8587 32.0868 14.736C32.4548 14.6133 32.8814 14.5147 33.3668 14.44C33.8521 14.36 34.4068 14.312 35.0308 14.296V13.816C35.0308 13.2667 34.9134 12.8613 34.6788 12.6C34.4441 12.3333 34.1054 12.2 33.6628 12.2C33.3428 12.2 33.0761 12.2373 32.8628 12.312C32.6548 12.3867 32.4708 12.472 32.3108 12.568C32.1508 12.6587 32.0041 12.7413 31.8708 12.816C31.7428 12.8907 31.5988 12.928 31.4388 12.928C31.3001 12.928 31.1828 12.8933 31.0868 12.824C30.9908 12.7493 30.9134 12.664 30.8548 12.568L30.5028 11.936ZM40.8198 7.112V19H38.8438V7.112H40.8198ZM59.5351 7.432V19H57.6391V11.528C57.6391 11.2293 57.6551 10.9067 57.6871 10.56L54.1911 17.128C54.0258 17.4427 53.7725 17.6 53.4311 17.6H53.1271C52.7858 17.6 52.5325 17.4427 52.3671 17.128L48.8311 10.536C48.8471 10.712 48.8605 10.8853 48.8711 11.056C48.8818 11.2267 48.8871 11.384 48.8871 11.528V19H46.9911V7.432H48.6151C48.7111 7.432 48.7938 7.43467 48.8631 7.44C48.9325 7.44533 48.9938 7.45867 49.0471 7.48C49.1058 7.50133 49.1565 7.536 49.1991 7.584C49.2471 7.632 49.2925 7.696 49.3351 7.776L52.7991 14.2C52.8898 14.3707 52.9725 14.5467 53.0471 14.728C53.1271 14.9093 53.2045 15.096 53.2791 15.288C53.3538 15.0907 53.4311 14.9013 53.5111 14.72C53.5911 14.5333 53.6765 14.3547 53.7671 14.184L57.1831 7.776C57.2258 7.696 57.2711 7.632 57.3191 7.584C57.3671 7.536 57.4178 7.50133 57.4711 7.48C57.5298 7.45867 57.5938 7.44533 57.6631 7.44C57.7325 7.43467 57.8151 7.432 57.9111 7.432H59.5351ZM66.8421 13.952C66.8421 13.696 66.8048 13.456 66.7301 13.232C66.6608 13.0027 66.5541 12.8027 66.4101 12.632C66.2661 12.4613 66.0821 12.328 65.8581 12.232C65.6395 12.1307 65.3835 12.08 65.0901 12.08C64.5195 12.08 64.0688 12.2427 63.7381 12.568C63.4128 12.8933 63.2048 13.3547 63.1141 13.952H66.8421ZM63.0741 15.144C63.1061 15.5653 63.1808 15.9307 63.2981 16.24C63.4155 16.544 63.5701 16.7973 63.7621 17C63.9541 17.1973 64.1808 17.3467 64.4421 17.448C64.7088 17.544 65.0021 17.592 65.3221 17.592C65.6421 17.592 65.9168 17.5547 66.1461 17.48C66.3808 17.4053 66.5835 17.3227 66.7541 17.232C66.9301 17.1413 67.0821 17.0587 67.2101 16.984C67.3435 16.9093 67.4715 16.872 67.5941 16.872C67.7595 16.872 67.8821 16.9333 67.9621 17.056L68.5301 17.776C68.3115 18.032 68.0661 18.248 67.7941 18.424C67.5221 18.5947 67.2368 18.7333 66.9381 18.84C66.6448 18.9413 66.3435 19.0133 66.0341 19.056C65.7301 19.0987 65.4341 19.12 65.1461 19.12C64.5755 19.12 64.0448 19.0267 63.5541 18.84C63.0635 18.648 62.6368 18.368 62.2741 18C61.9115 17.6267 61.6261 17.168 61.4181 16.624C61.2101 16.0747 61.1061 15.44 61.1061 14.72C61.1061 14.16 61.1968 13.6347 61.3781 13.144C61.5595 12.648 61.8181 12.2187 62.1541 11.856C62.4955 11.488 62.9088 11.1973 63.3941 10.984C63.8848 10.7707 64.4368 10.664 65.0501 10.664C65.5675 10.664 66.0448 10.7467 66.4821 10.912C66.9195 11.0773 67.2955 11.32 67.6101 11.64C67.9248 11.9547 68.1701 12.344 68.3461 12.808C68.5275 13.2667 68.6181 13.792 68.6181 14.384C68.6181 14.6827 68.5861 14.8853 68.5221 14.992C68.4581 15.0933 68.3355 15.144 68.1541 15.144H63.0741ZM75.253 12.888C75.029 12.616 74.7837 12.424 74.517 12.312C74.2557 12.2 73.973 12.144 73.669 12.144C73.3703 12.144 73.101 12.2 72.861 12.312C72.621 12.424 72.4157 12.5947 72.245 12.824C72.0743 13.048 71.9437 13.336 71.853 13.688C71.7623 14.0347 71.717 14.4453 71.717 14.92C71.717 15.4 71.7543 15.808 71.829 16.144C71.909 16.4747 72.021 16.7467 72.165 16.96C72.309 17.168 72.485 17.32 72.693 17.416C72.901 17.5067 73.133 17.552 73.389 17.552C73.7997 17.552 74.149 17.4667 74.437 17.296C74.725 17.1253 74.997 16.8827 75.253 16.568V12.888ZM77.229 7.112V19H76.021C75.7597 19 75.5943 18.88 75.525 18.64L75.357 17.848C75.0263 18.2267 74.645 18.5333 74.213 18.768C73.7863 19.0027 73.2877 19.12 72.717 19.12C72.269 19.12 71.8583 19.0267 71.485 18.84C71.1117 18.6533 70.789 18.384 70.517 18.032C70.2503 17.6747 70.0423 17.2347 69.893 16.712C69.749 16.1893 69.677 15.592 69.677 14.92C69.677 14.312 69.7597 13.7467 69.925 13.224C70.0903 12.7013 70.3277 12.248 70.637 11.864C70.9463 11.48 71.317 11.1813 71.749 10.968C72.181 10.7493 72.6663 10.64 73.205 10.64C73.6637 10.64 74.0557 10.712 74.381 10.856C74.7063 11 74.997 11.1947 75.253 11.44V7.112H77.229ZM81.2271 10.792V19H79.2431V10.792H81.2271ZM81.4991 8.4C81.4991 8.57067 81.4645 8.73067 81.3951 8.88C81.3258 9.02933 81.2325 9.16 81.1151 9.272C81.0031 9.384 80.8698 9.47467 80.7151 9.544C80.5605 9.608 80.3951 9.64 80.2191 9.64C80.0485 9.64 79.8858 9.608 79.7311 9.544C79.5818 9.47467 79.4511 9.384 79.3391 9.272C79.2271 9.16 79.1365 9.02933 79.0671 8.88C79.0031 8.73067 78.9711 8.57067 78.9711 8.4C78.9711 8.224 79.0031 8.05867 79.0671 7.904C79.1365 7.74933 79.2271 7.616 79.3391 7.504C79.4511 7.392 79.5818 7.304 79.7311 7.24C79.8858 7.17067 80.0485 7.136 80.2191 7.136C80.3951 7.136 80.5605 7.17067 80.7151 7.24C80.8698 7.304 81.0031 7.392 81.1151 7.504C81.2325 7.616 81.3258 7.74933 81.3951 7.904C81.4645 8.05867 81.4991 8.224 81.4991 8.4ZM87.5776 15.496C87.007 15.5227 86.527 15.5733 86.1376 15.648C85.7483 15.7173 85.4363 15.808 85.2016 15.92C84.967 16.032 84.799 16.1627 84.6976 16.312C84.5963 16.4613 84.5456 16.624 84.5456 16.8C84.5456 17.1467 84.647 17.3947 84.8496 17.544C85.0576 17.6933 85.327 17.768 85.6576 17.768C86.063 17.768 86.4123 17.696 86.7056 17.552C87.0043 17.4027 87.295 17.1787 87.5776 16.88V15.496ZM83.0496 11.936C83.9936 11.072 85.1296 10.64 86.4576 10.64C86.9376 10.64 87.367 10.72 87.7456 10.88C88.1243 11.0347 88.4443 11.2533 88.7056 11.536C88.967 11.8133 89.1643 12.1467 89.2976 12.536C89.4363 12.9253 89.5056 13.352 89.5056 13.816V19H88.6096C88.423 19 88.279 18.9733 88.1776 18.92C88.0763 18.8613 87.9963 18.7467 87.9376 18.576L87.7616 17.984C87.5536 18.1707 87.351 18.336 87.1536 18.48C86.9563 18.6187 86.751 18.736 86.5376 18.832C86.3243 18.928 86.095 19 85.8496 19.048C85.6096 19.1013 85.343 19.128 85.0496 19.128C84.703 19.128 84.383 19.0827 84.0896 18.992C83.7963 18.896 83.543 18.7547 83.3296 18.568C83.1163 18.3813 82.951 18.1493 82.8336 17.872C82.7163 17.5947 82.6576 17.272 82.6576 16.904C82.6576 16.696 82.6923 16.4907 82.7616 16.288C82.831 16.08 82.943 15.8827 83.0976 15.696C83.2576 15.5093 83.463 15.3333 83.7136 15.168C83.9643 15.0027 84.271 14.8587 84.6336 14.736C85.0016 14.6133 85.4283 14.5147 85.9136 14.44C86.399 14.36 86.9536 14.312 87.5776 14.296V13.816C87.5776 13.2667 87.4603 12.8613 87.2256 12.6C86.991 12.3333 86.6523 12.2 86.2096 12.2C85.8896 12.2 85.623 12.2373 85.4096 12.312C85.2016 12.3867 85.0176 12.472 84.8576 12.568C84.6976 12.6587 84.551 12.7413 84.4176 12.816C84.2896 12.8907 84.1456 12.928 83.9856 12.928C83.847 12.928 83.7296 12.8933 83.6336 12.824C83.5376 12.7493 83.4603 12.664 83.4016 12.568L83.0496 11.936Z" fill="white"/>
</svg>
